<?xml version="1.0" encoding="utf-8"?>
<svg version="1.1" xmlns="http://www.w3.org/2000/svg" xmlns:xlink="http://www.w3.org/1999/xlink" x="0px"
	 y="0px" viewBox="0 0 206.06 74.18" xml:space="preserve">
<g>
	<path d="M16.61,3.94l0.82,0.82l4.59-0.47l0.47-0.35h2.48l1.65,0.82l1.54,0.59l1.42,2.94l-0.47,10l-0.95,2.47l0.95,1.06l-0.95,1.41
		v3.18l0.35,0.35v4l1.06,4l-1.06,0.94l-0.35,9.06l-0.71,0.59l1.06,1.06v2.47l0.59,0.35l-0.95,1.06v3.53l1.42,5.06l-0.47,0.35
		l0.47,0.47l1.06,3.18l1.06,0.94h1.88l0.59-0.59l1.41-1.06l2.59,2.47l2.47,0.71L41,64.66l4.59-0.82l2.59,1.53l0.94,1.88l-0.59,1.65
		v0.35l-4,2.59h-2l-3.41,0.94l-2-0.94l-2.59,0.94l-2-0.94v-0.47h-1.88l-1.53,0.82l-0.59-0.35h-1.06v-0.47l-6.49-0.59l-0.35,0.59
		l-3.53,0.47l-2.47,0.94l-1.53-0.59h-1.06v-0.35l-7.41-0.47l-2.59-2.47l1.06-1.06l-0.59-0.59l1.06-1.88h0.59l0.82-2.12l4.59,0.59
		l4.59-2l1.41,0.35h1.53l2.12-2.47l0.82-0.82l-0.82-3.53l0.82-3.53l1.65-1.06v-1.06l0.83-0.82l-2.94-3.18H19.2V44.3l2.47-2.94
		l1.42-4.59l-0.59-5.41v-0.59l-0.47-0.47h1.06l1.54-3.06l-1.06-0.82l-1.06-3.53h0.59V19.7l-0.59-10l-2.94,1.06L18.49,9.7h-6
		l-3.29,1.65l0.35-0.59l-0.35-0.47H8.49l-0.35,0.47l-4-1.88L3.08,7.23V4.3l3.53-1.06l0.47,0.7l0.35-1.06l9.18,0.35V3.94z"/>
	<path d="M113.84,23.21v0.32l3.99,0.43l4.21,0.54h0.97l0.43,0.43l0.97-0.97l3.56,0.54l1.94,3.67v10.46l0.32,4.21v3.24l-0.86,1.73
		l0.54,6.9l0.32,2.27l0.97,2.91v0.32l0.97,0.97l2.27-0.54l2.7-0.43h6.47l2.7,0.43l1.29,2.27l-0.32,1.51v0.43l0.97,0.97l-0.65,1.73
		l-0.86,1.83l-2.37,0.97l-4.53,0.43v-0.43l-1.73-0.97l-1.94,0.43h-3.24h-3.02l-0.54,0.54l-0.97-0.97l-2.37,0.97h-3.99l-2.8,1.29
		l-1.4-0.86l-0.86-0.97l-0.43,0.54l-7.87-0.54v-0.43l-0.32-0.32l-0.54,0.32l-2.37-0.32l-1.29-0.65l-0.97-2.59l0.54-3.24l2.37-1.4
		h2.59l1.4-0.97l6.47,0.43h4.96v-3.02L120.75,56h-0.97l0.43-0.76h0.54l0.32,0.43l1.4-2.27l-0.43-0.43l0.97-6.9l-0.54-1.83l-0.43-8.2
		h0.43l0.54-2.37l0.43-1.83v-0.43l-1.4-1.29l-1.29,0.32l-2.91,2.7l-0.86-1.29l-1.4-1.4h-2.7l-0.97,0.97h-2.27l-1.83-2.27l0.54-0.65
		l-0.54-0.32l-0.86-1.29l0.43-3.34h1.29v-0.86l4.64,0.86L113.84,23.21z"/>
	<path d="M165.13,23.55v0.86l1.94,1.73h1.73l0.54,0.65h0.97v1.3h4l2.92-2.27h1.3l0.43-0.43l2.81-1.83l1.41-0.43l0.87,0.75h0.87
		l0.54-0.32v-0.43l2.27,0.75l0.43-0.32h0.87l3.36,2.59h0.87l3.68,5.63h-0.54v2.81l0.54,2.68l1.29,2.68v0.97l-1.83,2.25l0.54,19.54
		l2.27,1.5l0.43-0.54l2.81,5.48l-1.83,0.97l-0.43,0.43l-1.51-1.4h-3.67h-2.6l-0.65,0.43l-5.95,0.54l-0.87-0.97h-3.68l-0.97-1.29
		l0.54-3.65l0.43,0.43l0.54-0.43l1.73-0.54l7.47-0.32l0.76-0.97l-0.33-0.43h-0.43l0.76-0.97l-0.33-0.54l-1.41-4.62l0.43-2.58
		l1.3-1.4l-1.3-1.82l0.54-1.4v-0.97l-0.97-0.32l0.43-3.22l0.54-3.65l-1.52-2.25v-2.25l-4-3.23l-1.41-0.43h-1.52l-1.3,1.3l-3.25,1.72
		h-1.73l-0.97,1.93l0.43,0.43L173,41.88v1.29l-0.43-0.43h-0.97l-0.86,1.4l0.32,1.29l-0.32-0.32l-2.7,6.23l0.32,2.25l0.43,1.93
		l0.54,2.68l-1.29,0.97v1.82l1.29,2.36l6.92,0.32l0.97-0.97l0.32,0.64h0.97l-1.95,0.86l-0.87,3.65l-2.71,2.7l-2.27-0.97l-1.4,0.54
		l-1.29,0.43v-0.43h-3.89h-4.53l-0.43-0.54h-0.86l-0.97,0.97l-1.4-0.97l-2.27,0.54l-0.32,0.43v0.54l-1.4-0.97l-1.51-1.29l-0.43,0.32
		h-0.32v-2.26h0.32l0.97-2.25l1.4-1.29h2.59l2.91-1.4l1.29,0.43l0.43-1.4l0.97-1.82v-1.4l-0.43-0.32l1.4-1.61l-0.97-1.29l0.54,0.54
		v-6.01l-0.54-0.43l-0.43-1.29v-5.9v-3.22l-0.54-0.54l0.97-0.86v-1.5l-2.7-0.32l-1.29-0.43v-1.51l-4.64-3.03l-0.54-1.95l-0.43-1.95
		l2.7-2.59l4.21,1.3l0.43-0.43v0.43l2.27,0.54l2.27-1.83h0.54l0.43-1.4l0.32,1.4H165.13z"/>
	<g>
		<g>
			<path d="M40.78,17.2c-1.3,0-2.44-0.77-2.44-2.33v-1.28h1.01v1.19c0,1.35,1.06,1.28,1.06,1.28v-4.55h-2.07V4.78H39
				c1.29,0,2.44,0.77,2.44,2.34V8.4H40.4V7.23c0-1.35-0.92-1.3-1.06-1.3v4.55h2.09v6.73H40.78z"/>
			<path d="M49.05,10.47H48V5.93c0.13,0,1.06-0.04,1.06,1.3V10.47z M50.09,17.2v-3.62h-1.03v2.47c-0.11,0-1.06,0.07-1.06-1.28v-3.27
				h2.09V7.12c0-1.57-1.15-2.34-2.44-2.34h-0.66v10.08c0,1.57,1.15,2.34,2.44,2.34H50.09z"/>
			<path d="M57.7,8.4V7.23c0-1.35-0.92-1.3-1.03-1.3V17.2h-1.03V4.78h0.66c1.3,0,2.44,0.77,2.44,2.34V8.4H57.7z"/>
			<path d="M64.28,3.77V2.74h1.03v1.03H64.28z M64.28,17.2V4.78h1.03V17.2H64.28z"/>
			<path d="M72.97,16.05c-0.11,0-1.06,0.07-1.06-1.28v-3.27h1.06V16.05z M74,17.2V7.12c0-1.57-1.15-2.34-2.44-2.34H70.9V8.4h1.03
				V5.93c0.11,0,1.03-0.04,1.03,1.3v3.25H70.9v4.39c0,1.57,1.15,2.34,2.44,2.34H74z"/>
			<path d="M79.55,17.2V2.73h1.03V17.2H79.55z"/>
			<path d="M94.46,10.47H93.4V5.93c0.13,0,1.06-0.04,1.06,1.3V10.47z M95.49,17.2v-3.62h-1.03v2.47c-0.11,0-1.06,0.07-1.06-1.28
				v-3.27h2.09V7.12c0-1.57-1.15-2.34-2.44-2.34h-0.66v10.08c0,1.57,1.15,2.34,2.44,2.34H95.49z"/>
			<path d="M103.37,17.2l-0.64-4.14l-0.66,4.14h-1.15l1.3-6.15l-1.3-6.27h1.15l0.66,4.33l0.64-4.33h1.17l-1.3,6.27l1.3,6.15H103.37z
				"/>
			<path d="M112.05,16.17h-1.06V5.93c0.13,0,1.06-0.04,1.06,1.3V16.17z M113.08,17.2V7.12c0-1.57-1.15-2.34-2.44-2.34h-0.66v15.87
				h1.03V17.2H113.08z"/>
			<path d="M139.07,8.4V7.23c0-1.35-0.92-1.3-1.03-1.3V17.2h-1.03V4.78h0.66c1.3,0,2.44,0.77,2.44,2.34V8.4H139.07z"/>
			<path d="M145.66,3.77V2.74h1.03v1.03H145.66z M145.66,17.2V4.78h1.03V17.2H145.66z"/>
			<path d="M156.39,17.2V5.93c-0.11,0-1.03-0.04-1.03,1.28v10h-1.03V7.23c0-1.35-0.9-1.3-1.01-1.3V17.2h-1.03V4.78h0.66
				c0.75,0,1.45,0.26,1.89,0.82c0.46-0.55,1.19-0.82,1.91-0.82h0.68V17.2H156.39z"/>
			<path d="M165.07,10.47h-1.06V5.93c0.13,0,1.06-0.04,1.06,1.3V10.47z M166.1,17.2v-3.62h-1.03v2.47c-0.11,0-1.06,0.07-1.06-1.28
				v-3.27h2.09V7.12c0-1.57-1.15-2.34-2.44-2.34H163v10.08c0,1.57,1.15,2.34,2.44,2.34H166.1z"/>
			<path d="M173.72,17.2V7.23c0-1.35-0.92-1.3-1.03-1.3V17.2h-1.03V4.78h0.66c1.3,0,2.44,0.77,2.44,2.34V17.2H173.72z"/>
			<path d="M181.81,5.81V17.2h-1.03V5.81h-1.04V4.8h1.04V2.73h1.03v2.05h1.04v1.03H181.81z"/>
			<path d="M190.69,17.2c-1.3,0-2.44-0.77-2.44-2.33v-1.28h1.01v1.19c0,1.35,1.06,1.28,1.06,1.28v-4.55h-2.07V4.78h0.66
				c1.29,0,2.44,0.77,2.44,2.34V8.4h-1.03V7.23c0-1.35-0.92-1.3-1.06-1.3v4.55h2.09v6.73H190.69z"/>
		</g>
		<path d="M124.89,17.99c-4.07,0-7.44-3.27-7.44-7.26c0-3.99,3.36-7.36,7.44-7.36c4.07,0,7.44,3.37,7.44,7.36
			C132.33,14.72,128.96,17.99,124.89,17.99z M126.66,8.56c-1.1-1.04-2.42-1.16-3.54-0.52c-1.12,0.65-1.64,1.87-1.22,3.26
			L126.66,8.56z M128.15,10.82c-0.14,1.17-0.69,2.1-1.64,2.65c-1.24,0.72-2.93,0.49-3.76-0.71l6.83-3.94l-0.19-0.32
			c-1.85-3.21-5.22-3.15-6.93-2.16c-2.87,1.66-3.29,4.78-2.03,6.95c1.25,2.17,4.17,3.37,7.04,1.71c1.47-0.87,2.4-2.4,2.66-4.21
			L128.15,10.82z"/>
	</g>
	<g>
		<path d="M98.9,56.47v-0.42H97.6l-2.27,0.42l-2.91,1.27L91.45,57v-0.53H90.7l-0.54-0.42l-0.97-1.8l0.65-0.42h0.32l-0.32-2.22V46
			V33.32l-0.65-2.9l-1.73-1.73l0.43-0.54h0.54l-0.54-0.32l-1.73-2.71h-0.97l-1.95-0.65l0.65-0.32l-1.94-0.97l-4.64-0.32v-0.65
			l-5.83,0.65l-0.65,0.32l-0.32-0.32l-4.21-0.65l-3.67,0.97L62.3,23.6l-0.97-0.76l-0.97,0.76l-2.7,1.84l-0.54-0.32h-0.76l-0.97,0.76
			l-0.54,0.54H54.1l0.32,1.41l-0.97,0.87l0.65,0.43l-1.62,1.95v2.25l0.65,1.71v2.25l1.73,3.75l0.54,0.43v0.97l3.67,0.98v0.76
			l-1.94,0.54H55.4l-0.97,0.98l-2.7,4.01l-2.27,0.95l-0.54,2.65l0.97,1.8l-1.4,2.33l0.97,2.54l0.75,1.61l-0.32,1.3l1.29,0.97v0.76
			h0.97l4.21,4.22l3.99-0.43l1.29,1.4l0.65-0.65h1.5c0.02-0.02,0.03-0.03,0.06-0.05c0,0,0.01-0.03,0.02-0.03
			c0.08-0.03,0.25-0.03,0.31,0.02c0.02,0.01,0.02,0.05,0.03,0.07h0.35v0.08c0.09,0,0.19,0.01,0.28,0.01l0.05-0.09l0.09,0.09
			c0.01,0,0.01,0,0.02,0c0.03,0,0.11-0.05,0.13-0.05c0.03,0,0.03,0.02,0.05,0.02c0,0,0.01-0.05,0.02-0.05
			c0.03-0.02,0.08-0.05,0.11-0.06c0,0,0.02,0.04,0.03,0.03c0,0,0-0.05,0-0.05c0.1-0.03,0.22-0.07,0.33-0.08
			c0.08-0.01,0.15,0.03,0.19,0.03c0.14,0.02,0.29,0.01,0.41,0c0.06,0,0.17,0.02,0.23,0c0,0,0-0.06,0-0.06
			c0.07-0.03,0.16-0.08,0.21-0.1c0.02,0,0.05,0.01,0.06,0c0.01-0.01,0.02-0.05,0-0.05c0.04-0.02,0.08-0.05,0.11-0.06
			c0.07-0.02,0.13,0,0.21-0.02l0.06-0.03c0.03-0.01,0.08,0.01,0.11,0c0,0,0-0.04,0-0.05h0.03c0.01,0,0.02-0.04,0.03-0.05
			c0.04-0.03,0.16-0.08,0.23-0.08c0.07,0,0.16,0.04,0.21,0.07v0.03c0.04,0.01,0.02-0.02,0.05-0.02c0.19,0,0.4,0.02,0.57-0.03
			c0.03-0.01,0.06-0.05,0.08-0.06c0.03-0.02,0.04,0,0.08-0.02c0.03-0.01,0.12-0.09,0.16-0.11c0.04-0.03,0.08-0.09,0.15-0.1
			c0.27-0.04,0.25,0.23,0.44,0.19c0.03-0.01,0.06-0.05,0.08-0.06c0.15-0.12,0.21-0.31,0.46-0.34c0.12-0.01,0.33-0.02,0.42,0.02
			c0.04,0.02,0.18,0.12,0.19,0.16c0.02,0.04,0,0.08,0.02,0.11c0,0,0.03,0.01,0.03,0.02c0.04,0.06,0.08,0.14,0.07,0.23
			c-0.01,0.12-0.12,0.15-0.11,0.31c0.01,0.08,0.04,0.16,0.05,0.23h1.27c-0.02-0.04-0.03-0.08-0.05-0.12
			c-0.01-0.02-0.05-0.04-0.06-0.06c-0.02-0.03-0.03-0.13-0.03-0.13c-0.01-0.02-0.03,0-0.05-0.02c-0.04-0.02-0.02-0.06-0.05-0.1
			c-0.04,0.01-0.01,0.02-0.03,0c-0.03-0.03-0.1-0.1-0.11-0.15c-0.03-0.13,0.06-0.17,0.03-0.31c-0.02-0.14-0.26-0.24-0.21-0.39
			c0-0.01,0.03-0.02,0.03-0.03c0.11,0.01,0.19,0.01,0.26,0.07c0.01,0.01,0.02,0.04,0.03,0.05c0.05,0.03,0.11,0.02,0.16,0.05
			c0.02,0.01,0.15,0.17,0.16,0.19c0.03,0.05,0.02,0.1,0.05,0.15c0,0,0.05,0.01,0.05,0.02c0.02,0.02,0.12,0.17,0.13,0.2
			c0.03,0.09,0.02,0.17,0.07,0.24c0.06,0.11,0.23,0.17,0.29,0.28c0.01,0.02,0.02,0.05,0.02,0.07h0.28c0.03-0.04,0.06-0.07,0.09-0.09
			c0.01-0.01,0.04-0.01,0.07-0.02l0.06-0.05c0.01-0.03,0.03-0.06,0.03-0.06c0.03-0.03,0.07-0.04,0.11-0.05l0.19-0.15
			c0-0.07,0-0.15-0.01-0.24c-0.09-0.01-0.18-0.02-0.23,0c-0.1,0.05-0.12,0.2-0.26,0.23c-0.25,0.05-0.37-0.18-0.46-0.31
			c-0.01-0.01-0.03-0.02-0.03-0.03c-0.04-0.07-0.02-0.16-0.03-0.26c-0.01-0.14-0.08-0.35,0.08-0.39c0.1-0.03,0.21,0.01,0.29-0.02
			c0.1-0.04,0.11-0.16,0.19-0.21c0.06-0.04,0.26-0.1,0.28-0.16c0.01-0.05,0-0.13-0.02-0.16c-0.02-0.03-0.27-0.09-0.31-0.13
			c-0.03-0.03-0.04-0.08-0.07-0.11c-0.05-0.07-0.18-0.22-0.24-0.26c-0.09-0.06-0.23-0.08-0.32-0.13c-0.17-0.08-0.19-0.13-0.06-0.28
			c0.08-0.09,0.19-0.18,0.31-0.23c0.01-0.01,0.03,0,0.05,0c0.05-0.01,0.14-0.12,0.16-0.16c0.03-0.05,0.02-0.09,0.05-0.13
			c0.02-0.02,0.08-0.08,0.11-0.08c0.28-0.05,0.17,0.38,0.11,0.5v0.03c-0.01,0.03-0.07,0.07-0.08,0.1c-0.02,0.06,0.01,0.13,0,0.13
			c0.1,0.09,0.21,0.14,0.33,0.23c0.05,0.04,0.09,0.11,0.15,0.15c0.05,0.03,0.09,0.03,0.15,0.07c0.01,0.01,0.02,0.04,0.03,0.05h0.03
			c0.11,0.12,0.04,0.31,0.11,0.47c0.01,0.03,0.09,0.07,0.1,0.1c0.01,0.02-0.02,0.06-0.02,0.06c0,0,0.06,0,0.07,0
			c0.02,0.03,0.01,0.06,0.03,0.1c0.02,0.03,0.08,0.05,0.1,0.08c0.04,0.06,0.04,0.11,0.08,0.16c0.01,0.01,0.04,0.02,0.05,0.03
			c0.05,0.08,0.06,0.17,0.11,0.24c0.02,0.03,0.08,0.05,0.1,0.08c0.03,0.04,0.05,0.09,0.07,0.14h1.8c0,0-0.01-0.01-0.01-0.01
			c-0.01-0.01,0.01-0.04,0-0.05h-0.05C76,68.26,76.01,68.24,76,68.17c0,0-0.05,0-0.05,0c-0.02-0.03,0-0.06-0.02-0.08
			c-0.03-0.03-0.05-0.01-0.06-0.02c-0.02-0.01-0.02-0.05-0.03-0.06c-0.02-0.02-0.07-0.02-0.08-0.05c-0.01-0.02,0-0.05-0.02-0.07
			c-0.01,0-0.04,0.01-0.06,0c-0.08-0.04-0.26-0.26-0.18-0.41c0.01-0.03,0.06-0.03,0.08-0.05c0.06-0.04,0.15-0.1,0.23-0.11
			c0.12-0.02,0.23,0.01,0.32,0.03l0.03,0.03c0.01,0,0.05-0.01,0.03-0.02c0.12-0.01,0.22-0.05,0.31-0.05c0.26,0,0.03,0.22-0.03,0.28
			c0,0-0.03-0.02-0.03-0.02c-0.01,0.01,0.01,0.05,0,0.06c0,0-0.03,0.01-0.03,0.02c-0.01,0.03,0,0.05-0.02,0.08h-0.03
			c-0.02,0.06-0.02,0.22,0,0.28c0.01,0,0.01,0,0.02,0C76.36,67.99,76.39,68,76.39,68c0.05,0.07,0.1,0.13,0.16,0.19
			c-0.02,0-0.02-0.01-0.03-0.02c0,0-0.02,0.03-0.02,0.03c0.05,0,0.08,0.02,0.11,0.02c0.01,0,0.02-0.01,0.02-0.01l0.42-0.34
			c0-0.03,0-0.06-0.01-0.1c0.01-0.01,0.04-0.05,0.05-0.07c0.05,0.01,0.1,0,0.16,0.01l0.34-0.27c-0.09-0.16-0.52-0.07-0.3-0.43
			c0.05-0.08,0.12-0.16,0.23-0.18c0.09-0.02,0.57-0.03,0.65,0c0.03,0.01,0.05,0.05,0.08,0.08l0.44-0.36l0.64-0.09c0,0,0,0,0-0.01
			c0-0.02,0.02-0.1,0.02-0.1c0.13-0.09,0.39-0.17,0.41-0.37c0-0.02-0.02-0.19-0.03-0.21c-0.02-0.03-0.14-0.06-0.18-0.08
			c0,0-0.05-0.05-0.05-0.05c0-0.01,0.01-0.04,0-0.05c-0.02-0.01-0.07,0.01-0.1,0c-0.02-0.01-0.06-0.06-0.08-0.07
			c-0.05-0.02-0.1-0.02-0.15-0.03c0-0.02,0-0.06-0.02-0.07c-0.04-0.02-0.04,0.02-0.08,0.02c-0.01,0-0.07-0.04-0.08-0.05
			c-0.05-0.01-0.23-0.04-0.26-0.03v0.03c-0.06,0.03-0.09,0.02-0.15,0.05v0.03c-0.07,0.03-0.16,0.08-0.28,0.05
			c-0.14-0.03-0.17-0.23-0.28-0.29c-0.08-0.05-0.17-0.04-0.28-0.07c-0.01,0-0.06-0.05-0.07-0.05c-0.03-0.01-0.07,0.01-0.1,0
			c-0.07-0.02-0.15-0.11-0.21-0.15c0.01-0.02-0.01-0.05,0-0.06c0.02-0.05,0.13-0.08,0.18-0.11c0.02-0.02,0.04-0.06,0.06-0.08
			c0.09-0.07,0.43-0.27,0.6-0.23c0.13,0.03,0.21,0.19,0.44,0.15c0.07-0.01,0.31-0.21,0.32-0.26c0.03-0.07,0.01-0.14,0.02-0.21
			c0.05-0.02,0.03,0.01,0.05-0.03c-0.03-0.01-0.01,0.03-0.05,0.02l-0.02-0.03c-0.04-0.01-0.19-0.02-0.23-0.02
			c-0.13,0.02-0.22,0.18-0.41,0.1c0,0-0.15-0.16-0.15-0.16c0-0.01,0.04-0.03,0.02-0.05c-0.03-0.03-0.08-0.02-0.11-0.05
			c-0.03-0.03-0.03-0.11-0.03-0.11c-0.02-0.03-0.07-0.04-0.08-0.06c-0.02-0.03-0.02-0.04-0.03-0.07c0,0,0.05-0.02,0.03-0.03
			c0,0-0.06,0-0.02-0.02c-0.01,0.01-0.02,0.02-0.03,0.02l-0.03-0.03c-0.03-0.01-0.05,0.01-0.08,0c-0.02,0.04-0.09,0.12-0.16,0.13
			c-0.05,0-0.06-0.03-0.11-0.02c0,0,0.02,0.04,0,0.05c-0.05,0.03-0.09,0.01-0.13,0.02c0,0,0,0.05,0,0.05c0-0.01,0.02-0.01,0.03-0.02
			c-0.08,0.08-0.16,0.23-0.36,0.2c-0.01,0-0.03-0.05-0.03-0.05C77.06,63.98,77.05,64,77.04,64c-0.02-0.02-0.12-0.11-0.13-0.13
			c-0.01-0.03,0.03-0.03,0.02-0.05c0,0-0.01,0-0.02,0c-0.05-0.02-0.09-0.03-0.15-0.06c-0.01-0.01-0.03-0.06-0.05-0.07h-0.03
			c-0.02-0.02,0-0.05-0.02-0.06l-0.08-0.06l-0.02-0.02c-0.01-0.01-0.04,0-0.05,0c-0.01,0-0.19-0.11-0.21-0.13
			c-0.07-0.06-0.13-0.24-0.21-0.28c-0.11-0.05-0.13,0.05-0.16,0.13c-0.05,0.13-0.15,0.38-0.39,0.26c0,0-0.13-0.15-0.15-0.16
			c0,0-0.01-0.03-0.02-0.03c0,0,0.07,0.01,0.03-0.02c-0.03-0.02-0.11-0.03-0.15-0.05v-0.03c-0.05-0.02-0.09,0.01-0.13-0.02
			c-0.02-0.01-0.03-0.07-0.05-0.08c-0.03-0.02-0.07,0-0.1-0.02c-0.04-0.02-0.06-0.08-0.1-0.1c-0.01,0-0.01,0-0.02,0
			c-0.03-0.05,0.01-0.15,0-0.2c0,0-0.01,0-0.02,0c-0.02-0.01-0.06-0.11-0.07-0.11h-0.03c0,0,0.03-0.05,0.03-0.05
			c-0.08-0.04-0.09,0.03-0.1,0.03c-0.03,0.01-0.08,0-0.11,0c0,0,0.02-0.03,0.02-0.03c-0.1-0.02-0.21,0-0.31,0
			c-0.07,0.14-0.11,0.32-0.03,0.49c0.02,0.04,0.09,0.09,0.1,0.13c0.03,0.1,0,0.22-0.02,0.31c-0.02-0.01-0.01-0.04-0.05-0.03
			c0,0.03,0.01,0.07,0,0.1c0.04,0.01,0.02-0.02,0.05-0.02c0.03,0,0.08,0.05,0.1,0.07c0.1,0.06,0.27,0.14,0.21,0.34
			c0,0-0.03-0.02-0.03-0.02c0,0.01-0.02,0.05-0.02,0.05c0,0.04,0.02,0.03,0.02,0.07c0.03,0.02,0.03-0.01,0.05,0
			c0.02,0.01,0.02,0.05,0.03,0.06c0.01,0.01,0.04,0.01,0.05,0.02c0.02,0.01,0.01,0.05,0.03,0.06c0.08,0.05,0.2,0.03,0.23,0.13
			c0.02,0.06-0.01,0.12-0.02,0.16h-0.03c-0.03,0.09-0.04,0.22,0,0.29c0,0,0.03-0.02,0.05,0c0.01,0.02-0.01,0.03,0,0.05
			c0.01,0.03,0.1,0.05,0.11,0.08v0.03c0.02,0.01,0.16-0.02,0.21-0.02c0,0,0.1-0.02,0.15,0l0.1,0.08c0.01,0.01,0.03,0.06,0.03,0.06
			c0.05,0.13,0.03,0.16-0.02,0.24c0.07,0.04,0.04,0.05,0.1,0.13c0.1,0.15,0.27,0.17,0.31,0.39c0,0.02,0.03,0.11,0.02,0.16
			c-0.01,0-0.01,0-0.02,0c-0.02,0.01-0.04,0.06-0.06,0.06c-0.08,0.01-0.11-0.06-0.15-0.08c-0.1-0.05-0.15-0.04-0.24,0l-0.05,0.03
			c-0.03,0-0.01-0.02-0.05-0.02c-0.02,0.06,0,0.04-0.05,0.1c-0.01,0.01-0.04,0-0.05,0.02c-0.02,0.03-0.02,0.09-0.03,0.11
			c-0.03,0,0-0.05-0.02-0.03c0.06-0.03-0.09-0.02-0.02,0.02c0,0.02-0.01,0.05-0.02,0.11c0.04,0,0.1,0,0.15,0.03
			c0.01,0.01,0.02,0.06,0.03,0.07c0.04,0.01,0.03-0.03,0.05-0.03c0.08-0.02,0.24,0,0.28,0.03c0.02,0.01,0,0.03,0.02,0.05
			c0.04,0.05,0.04,0.07,0.05,0.16c-0.01,0-0.03,0.01-0.03,0.02c-0.03,0.06-0.09,0.09-0.15,0.13c-0.02,0.01-0.03,0.01-0.06,0.02
			c-0.02,0.05-0.03,0.16-0.11,0.18c-0.08,0.02-0.23-0.04-0.26-0.07c-0.03-0.03-0.01-0.06-0.03-0.1c-0.01,0-0.01,0-0.02,0
			c-0.04-0.02-0.05-0.06-0.05-0.06c-0.02-0.01-0.06,0-0.08-0.02c0-0.01,0-0.01,0-0.02c-0.04-0.02-0.01-0.03-0.03-0.06
			c-0.01-0.02-0.11-0.08-0.11-0.08c-0.01,0-0.03-0.01-0.03-0.02c-0.02-0.03,0.03-0.03-0.02-0.08h-0.03
			c-0.02-0.01-0.03-0.06-0.05-0.06c-0.05-0.02-0.09,0-0.13-0.03c-0.02-0.02-0.03-0.08-0.05-0.1c-0.01-0.01-0.04,0.02-0.06,0
			l-0.11-0.13c-0.02-0.04-0.06-0.15-0.07-0.2c0-0.03,0.02-0.09,0.02-0.1c-0.01-0.02-0.07-0.02-0.08-0.05c0-0.01,0.01-0.04,0-0.05
			c-0.01-0.01-0.05,0-0.06,0c-0.03-0.01-0.01-0.06-0.03-0.08c-0.01-0.01-0.03,0.01-0.03,0.02c-0.01-0.01-0.05-0.08-0.05-0.08
			c-0.03-0.02-0.06-0.01-0.08-0.03c-0.01-0.01,0-0.06,0-0.07c-0.04-0.02-0.05-0.01-0.08-0.03c0-0.01,0.02-0.05,0.02-0.05
			c-0.02-0.02-0.04,0.01-0.05,0.02c-0.03-0.04-0.08-0.09-0.1-0.13c-0.02-0.04-0.04-0.1-0.03-0.16c0-0.03,0.09-0.12,0.11-0.13
			c0.02-0.01,0.05,0.01,0.06,0c0.01-0.01,0-0.05,0.02-0.07c0.01-0.02,0.06-0.04,0.08-0.05c-0.01-0.06-0.01-0.08-0.02-0.13
			c-0.08-0.01-0.14,0.02-0.23,0c-0.05-0.01-0.24-0.17-0.29-0.21c0.02,0,0-0.04,0-0.05c-0.01,0-0.04,0.01-0.05,0c0,0,0-0.01,0-0.02
			c-0.02-0.01-0.02-0.05-0.02-0.05c-0.04-0.01-0.02,0.03-0.06,0.03c-0.06,0-0.3-0.2-0.32-0.24c-0.03-0.06-0.01-0.12-0.03-0.19
			c-0.01-0.02-0.06-0.05-0.06-0.08c-0.01-0.03,0.02-0.07,0.02-0.08c-0.01-0.02-0.06-0.02-0.06-0.02c-0.04-0.03-0.02-0.12-0.05-0.16
			c0-0.01-0.04,0-0.05,0l-0.06-0.08c-0.04-0.07-0.02-0.19-0.05-0.24c0-0.01-0.1-0.06-0.11-0.08c-0.02-0.02-0.02-0.06-0.03-0.08
			c-0.03-0.04-0.09-0.08-0.11-0.11c-0.05-0.09-0.05-0.22-0.05-0.36c0.01,0,0.05,0.02,0.05,0.02v-0.03c-0.01-0.01-0.04,0-0.05,0
			c-0.03-0.01-0.02-0.05-0.03-0.08h-0.03c-0.03-0.04-0.01-0.04-0.02-0.08c-0.03-0.01-0.07,0.01-0.1,0l-0.02-0.03
			c-0.05-0.02-0.14-0.05-0.18-0.05c-0.11-0.01-0.25,0.04-0.34-0.02c-0.02-0.01-0.03-0.06-0.05-0.08H71.6
			c-0.03-0.01-0.04-0.08-0.06-0.1H71.5c-0.01,0-0.02-0.04-0.03-0.05c-0.09-0.09-0.11-0.15-0.13-0.33c0-0.02-0.01-0.09-0.02-0.13
			c-0.07-0.03,0.05,0.02,0.05,0.02c0,0,0-0.05,0-0.05c-0.03-0.01-0.03,0.01-0.05,0c-0.06-0.02-0.08-0.1-0.16-0.1
			c-0.04,0-0.08,0.04-0.1,0.06c-0.14,0.13,0.03,0.39,0.05,0.52c0.01,0.1,0.02,0.3-0.02,0.37c-0.01,0.01-0.04,0.03-0.05,0.05
			c-0.1-0.01-0.17,0-0.23-0.05c-0.01-0.01-0.01-0.04-0.02-0.05c-0.03-0.02-0.06-0.01-0.08-0.03c-0.01,0-0.01-0.05-0.02-0.05
			c-0.01-0.01-0.04,0.01-0.05,0l-0.03-0.08c-0.01-0.01-0.03,0.01-0.03,0.02c-0.07-0.05-0.12-0.09-0.2-0.13
			c0.01,0-0.01-0.03-0.02-0.03c0,0,0.06-0.01,0.03-0.02c-0.13-0.04-0.24,0.05-0.33,0.06c-0.05,0.01-0.11-0.01-0.16,0
			c-0.03,0.01-0.08,0.06-0.11,0.06c-0.02,0-0.05-0.01-0.06,0c-0.02,0.02-0.01,0.06-0.08,0.1c-0.05,0.03-0.03,0.01-0.08,0.02
			c-0.01,0.03,0,0.06-0.02,0.07c-0.02,0.01-0.06-0.01-0.08,0l0.02,0.05c0,0.03-0.02,0.05-0.02,0.05l-0.02,0.06
			c-0.02-0.01-0.01-0.04-0.05-0.03c0,0.04,0,0.09,0,0.13c0.03,0,0.01-0.01,0.02-0.03c0.03,0.01,0.05-0.01,0.08,0
			c0.04,0.01,0.07,0.05,0.15,0.05c0.08,0,0.25-0.04,0.36-0.02c0.11,0.02,0.12,0.1,0.16,0.2c0.01,0.03,0.06,0.08,0.06,0.11
			c0,0.04-0.02,0.03-0.02,0.06c0.02,0,0.06,0,0.07,0c0,0,0.1,0.11,0.1,0.11c0.01,0.03-0.02,0.04-0.02,0.05
			c0.02,0.02,0.08,0.01,0.1,0.03c0.03,0.03,0.01,0.1,0.02,0.11c0,0,0.03,0.01,0.03,0.02c0.02,0.03,0.01,0.08,0.03,0.11
			c0.02,0.03,0.16,0.18,0.19,0.19c0.03,0.01,0.12,0.05,0.13,0.05c0.09,0.02,0.18,0,0.26-0.03c0,0,0.01-0.03,0.02-0.03
			c0.13-0.03,0.27,0.03,0.36,0.05c0.32,0.08,0.39,0.13,0.46,0.46c0.03,0,0.01,0.01,0.02,0.03c0.01,0.09-0.02,0.31-0.08,0.34
			c0,0.01,0,0.01,0,0.02c-0.04,0.03-0.14,0.05-0.21,0.03c-0.03-0.01-0.14-0.11-0.15-0.15c-0.01-0.02,0.01-0.05,0-0.07
			c0,0-0.15-0.05-0.2-0.06c0,0,0-0.01,0-0.02c-0.17-0.03-0.35,0.07-0.5,0c-0.08-0.04-0.1-0.16-0.15-0.23
			c-0.01-0.02-0.06-0.03-0.07-0.05v-0.03c-0.07-0.05-0.16-0.06-0.24-0.1c-0.01,0.05-0.01,0.1-0.05,0.16l-0.03,0.02
			c-0.01,0.02,0.02,0.02,0.02,0.05c0,0.02-0.04,0.07-0.05,0.1c0,0-0.03-0.02-0.03-0.02c-0.02,0.02-0.01,0.07-0.03,0.1l-0.1,0.07
			c0,0-0.03-0.04-0.03-0.03c0,0-0.03,0.06-0.03,0.07c-0.01,0-0.04-0.01-0.05,0c0.08,0.01-0.02,0.18-0.05,0.24
			c0,0-0.02-0.05-0.03-0.05c0,0.12,0,0.16,0,0.26h0.03c-0.01,0-0.03-0.1,0.02-0.07c0,0,0.1,0.17,0.11,0.18
			c0.01,0.01,0.09-0.01,0.15,0c0.05,0.01,0.09,0.07,0.13,0.1c-0.02,0.09-0.05,0.19-0.1,0.26c-0.11,0.15-0.5,0.18-0.68,0.06
			c-0.01-0.01-0.02-0.04-0.03-0.05c-0.02-0.01-0.03,0.01-0.05,0c-0.03-0.01-0.08-0.06-0.11-0.08c0,0,0.03-0.05,0.03-0.05
			c-0.03-0.01-0.08,0-0.08,0c-0.07,0-0.27-0.06-0.1,0.05c0,0-0.05,0.11,0,0.11c0.01,0.02,0,0.07,0,0.07c0.03,0.02,0.03-0.01,0.05,0
			c0.06,0.03,0.16,0.3,0.13,0.44c-0.01,0-0.01,0-0.02,0c-0.01,0.01-0.01,0.05-0.02,0.06c0,0-0.08,0.07-0.08,0.07
			c-0.01,0-0.04-0.01-0.05,0c-0.04,0.03-0.04,0.12-0.1,0.13c-0.03,0.01-0.04-0.04-0.06-0.02c0,0-0.03,0.1-0.05,0.11
			c-0.04,0.03-0.14,0.05-0.19,0.06c0,0.01,0,0.04,0,0.05c-0.01,0.02-0.04,0.01-0.05,0.03c-0.05-0.02-0.09-0.01-0.13-0.03
			c-0.05-0.03-0.06-0.12-0.11-0.15c-0.02-0.01,0.03-0.02,0.02-0.03c-0.01-0.01-0.04,0-0.05,0c-0.05-0.02-0.07-0.13-0.11-0.16
			c-0.01-0.01-0.04,0-0.05,0L68.2,66.1c-0.04-0.08-0.02-0.16-0.06-0.23c0,0-0.01,0-0.02,0c-0.01-0.01-0.07-0.08-0.02-0.05
			c0,0,0-0.05,0-0.05c-0.01,0-0.04,0-0.05,0c0,0.01-0.01,0.03-0.02,0.03c0.07,0-0.08,0-0.06,0c-0.04-0.01-0.05-0.02-0.08-0.03
			c-0.01,0.01-0.01,0.03-0.03,0.03l-0.1-0.03c-0.04,0-0.1,0.02-0.16,0.02c-0.04-0.01-0.11-0.03-0.16-0.05v-0.03
			c-0.25-0.06-0.59,0.08-0.7-0.11c-0.03-0.06-0.03-0.22,0.02-0.26c0.02-0.02,0.07-0.01,0.08-0.03c0.01-0.03-0.01-0.07,0-0.1
			c-0.03,0.01-0.01,0.02-0.02,0.05c-0.07-0.04,0.03-0.01-0.03-0.05c0,0,0.05,0,0.02-0.02c-0.07-0.04-0.05,0.02-0.08,0.02
			c-0.03,0-0.07-0.04-0.13-0.03l-0.07,0.03c-0.09,0.01-0.27,0.01-0.34-0.02c-0.07-0.02-0.18-0.11-0.21-0.18
			c-0.01-0.02,0-0.05-0.02-0.07c-0.03-0.04-0.09-0.07-0.13-0.1c0,0,0.04-0.05,0.03-0.05c-0.05-0.03-0.1-0.01-0.19-0.03l-0.03-0.03
			c0.03,0,0.05,0.01,0.08,0.02c0,0,0.04-0.04-0.02-0.03c0,0-0.06-0.02-0.08-0.02c0,0.03,0.01,0.05-0.02,0.06l0.02,0.07
			c0.03,0,0.04-0.01,0.07-0.02c0.06,0.06,0.09,0.1,0.03,0.2c-0.01,0.02-0.03,0.04-0.05,0.05c-0.01,0.01-0.04,0.03-0.05,0.03
			c-0.08,0.03-0.18,0-0.26,0.03c0,0,0,0.04,0,0.05l-0.02,0.02c-0.07,0.02-0.04,0.03-0.08,0.06c0,0,0.01,0.06,0.02,0.03
			c0,0,0,0.05,0,0.05c0.01,0.01,0.05,0,0.06,0c0,0.01,0,0.01,0,0.02c0.04,0.02,0.02,0.06,0.03,0.06c0.05,0.03-0.01-0.04,0.05-0.03
			v0.03c0.09,0.03,0.16,0.03,0.23,0.08c0.02,0.01,0.03,0.03,0.05,0.05c0,0-0.02,0.03-0.02,0.03c0.02,0.01,0.06,0.02,0.08,0.03
			c0.1,0.07,0.25,0.2,0.16,0.39c-0.01,0.01-0.06,0.04-0.07,0.05c-0.01,0.01-0.08,0.13-0.08,0.13c-0.08,0.06-0.24,0.02-0.31-0.03
			c-0.03-0.02-0.04-0.1-0.05-0.11c-0.02-0.02-0.02,0.03-0.02,0.03c-0.02-0.01-0.04-0.05-0.05-0.05c-0.09-0.03-0.25,0.01-0.32,0
			c-0.01,0.03-0.03,0.08-0.03,0.1c0,0-0.01-0.03-0.03-0.02c-0.02,0.01,0.02,0.07,0,0.08c0.01,0,0.04-0.04,0.05-0.05
			c0.01,0.06,0.03,0.23,0.02,0.18c0.03,0.01,0.04,0.03,0.08,0.05c0,0.01-0.02,0.05-0.02,0.05c0.01,0.01,0.08,0.06,0.1,0.08
			c0.06,0.07,0.1,0.15,0.06,0.28c-0.01,0.05-0.07,0.08-0.05,0.18c0,0.01,0.04,0.06,0.05,0.06c0.01,0.02,0,0.05,0.02,0.07
			c0.01,0.02,0.05,0.02,0.06,0.03c0.01,0.01,0.02,0.05,0.03,0.06c0.02,0.01,0.05,0.01,0.06,0.02c0,0-0.02,0.03-0.02,0.03
			c0.01,0.01,0.05-0.01,0.07,0l0.02,0.03c0.04,0.02,0.09,0.01,0.15,0.02c0.05-0.08,0.1-0.23,0.18-0.28c0.1-0.06,0.21-0.05,0.33-0.08
			c0.06-0.02,0.14-0.08,0.2-0.1c0.17-0.05,0.43-0.01,0.5,0.1c0.02,0.03,0.02,0.06,0.03,0.1c0.01,0.02,0.04,0.06,0.05,0.08
			c0.03,0.21-0.08,0.2-0.23,0.23l-0.06,0.03c-0.08,0.01-0.09-0.04-0.15-0.02c0,0,0,0.05,0,0.05c-0.02,0.01-0.06,0.01-0.07,0.03
			c0,0.01,0,0.04,0,0.05c-0.02,0.02-0.04,0-0.06,0.02c-0.02,0.01-0.01,0.03-0.02,0.05c-0.01,0.01-0.13,0.11-0.15,0.11
			c-0.03,0.01-0.07,0-0.1,0.02c-0.02,0.01,0,0.03-0.02,0.05c-0.02,0.04-0.13,0.09-0.18,0.1c-0.18,0.02-0.2-0.14-0.33-0.16
			c-0.02,0-0.21,0-0.18,0h-0.03c-0.02,0.01-0.01,0.05-0.02,0.06c-0.01,0.02-0.05,0.02-0.06,0.03c-0.01,0.01,0,0.04,0,0.05
			c-0.01,0.03-0.06,0.03-0.08,0.05c-0.04,0.03-0.08,0.1-0.13,0.11c-0.12,0.04-0.33,0.02-0.47,0.02c0,0-0.17-0.01-0.23,0.02
			c0,0.01,0,0.01,0,0.02c-0.03,0.01-0.02,0.05-0.03,0.06c-0.02,0.02-0.05,0-0.07,0.02c0,0.01,0.02,0.02,0.02,0.03
			c-0.04,0.03-0.09,0.04-0.13,0.06c-0.01,0.01-0.02,0.04-0.03,0.05c-0.02,0.01-0.06,0-0.08,0.02c-0.01,0,0.01,0.03,0.02,0.03
			c-0.02,0.01-0.05,0.04-0.06,0.05c-0.02,0.01-0.03-0.01-0.05,0v0.03c-0.01,0.03-0.13,0.09-0.16,0.1c-0.13,0.04-0.34,0.01-0.47,0
			l-0.05-0.16c-0.01-0.01-0.03,0.01-0.03,0.02c-0.02-0.01-0.01-0.02-0.03-0.03c0.02,0,0-0.04,0-0.05c-0.06,0-0.09,0.02-0.15-0.02
			c0,0-0.02-0.05-0.02-0.05c0,0-0.45-0.01-0.49,0c-0.03,0.01,0.03,0.02,0.03,0.02c-0.02,0.01-0.05,0.06-0.07,0.07
			c-0.04,0.02-0.03-0.02-0.07,0c-0.01,0.01,0.05,0.03,0.05,0.03c-0.06,0.05-0.13,0.15-0.2,0.18c-0.11,0.05-0.36,0.07-0.47,0.02
			c-0.04-0.02-0.03-0.06-0.03-0.06c-0.02-0.01-0.06-0.02-0.08-0.03v-0.03c-0.01,0-0.05,0.03-0.05,0.03v-0.03
			c-0.03,0.01,0,0.02-0.02,0.03c-0.03,0.02-0.05,0-0.08,0.02c-0.01,0.01-0.02,0.04-0.03,0.05c-0.12,0.06-0.64,0.07-0.76,0.02
			c0,0-0.01-0.03-0.02-0.03c-0.1-0.06-0.11-0.2-0.08-0.34c0.02-0.1,0.06-0.15,0.15-0.18c0.11-0.03,0.2,0.01,0.29,0.02
			c0.21,0.02,0.44-0.03,0.67-0.03c0,0,0.02-0.03,0.02-0.03c0.04-0.01,0.06,0.04,0.07,0.03c0.01-0.01,0.01-0.05,0.02-0.07
			c0,0,0.34-0.21,0.34-0.21c0.07-0.02,0.12,0,0.19-0.02c0.04-0.01,0.13-0.06,0.16-0.07c0.06-0.01,0.08,0.03,0.13,0.02
			c0,0-0.01-0.03-0.02-0.03c0.02,0,0.05-0.02,0.05-0.02c0.03-0.01,0.07,0.01,0.1,0c0.08-0.02,0.18-0.1,0.26-0.11
			c0.03-0.01,0.07,0.01,0.1,0v-0.03c0.02,0,0.05-0.02,0.05-0.02c0.07-0.02,0.26-0.04,0.33-0.05c0.03,0,0.09,0.02,0.1,0.02
			c0.01,0,0.07-0.04,0.08-0.05c0.12-0.04,0.23-0.02,0.34,0.02c0.08,0.02,0.23,0.03,0.29-0.11h0.03c0-0.08,0-0.15,0-0.23
			c-0.05-0.02-0.2-0.09-0.23-0.13c-0.01-0.02,0-0.05-0.02-0.06c-0.01-0.01-0.04,0-0.05,0c0,0-0.06-0.06-0.06-0.07
			c-0.02-0.03-0.01-0.08-0.03-0.1c-0.02-0.02-0.06,0-0.08-0.02c0,0,0-0.01,0-0.02c0,0-0.1-0.05-0.1-0.05c0-0.01,0.01-0.04,0-0.05
			c-0.01-0.01-0.04,0.01-0.06-0.02c-0.01-0.02-0.09-0.16-0.1-0.16c-0.02-0.01-0.03,0.02-0.03,0.02c-0.01,0-0.01,0-0.02,0
			c0,0-0.09-0.02-0.13-0.02c-0.01,0.02,0.01,0.04-0.02,0.03c-0.01,0,0.01-0.05-0.03-0.03c-0.05,0.02,0,0.05,0,0.05
			c-0.06,0.04-0.13,0.03-0.2,0.06c-0.01,0.01-0.05,0.06-0.06,0.07c-0.02,0.01-0.05-0.01-0.06,0c0,0,0.01,0.03,0.02,0.03
			c-0.03,0.01-0.07,0.03-0.08,0.03c-0.15,0.03-0.38,0-0.49,0.02l-0.03,0.03c-0.09,0.02-0.15,0-0.24,0.02
			c-0.03,0-0.09,0.05-0.11,0.05c-0.04,0-0.03-0.03-0.06-0.02v0.03c-0.09,0.01-0.23,0.04-0.34,0.02c-0.03-0.01-0.06-0.05-0.08-0.06
			c-0.04-0.02-0.09-0.01-0.13-0.03c-0.01-0.01-0.02-0.05-0.03-0.05c-0.04-0.01,0.01,0.02-0.03,0.02c0,0-0.04-0.02-0.06-0.02
			c-0.06,0.01-0.02,0.04-0.05,0.06c-0.03,0.02-0.05,0-0.08,0.02c-0.03,0.02,0.01,0.03,0,0.05c-0.01,0.01-0.03,0.01-0.05,0.02
			c-0.05,0.03-0.07,0.12-0.11,0.15c-0.09,0.06-0.22,0.03-0.36,0.05c-0.06,0.01-0.19,0.09-0.23,0.1c-0.04,0-0.05-0.03-0.08-0.03
			c0.01,0-0.01,0.03-0.02,0.03c0.03-0.01,0.05,0.02,0.05,0.02c-0.09,0.04-0.27,0.14-0.36,0.15c-0.07,0.01-0.12-0.03-0.16-0.05
			c-0.01,0-0.04-0.01-0.05-0.02c-0.08-0.06-0.06-0.17-0.05-0.28c0-0.02-0.02-0.09-0.02-0.08c-0.01-0.02,0-0.05,0-0.06
			c-0.01-0.04-0.07-0.07-0.08-0.1c-0.09-0.17,0.04-0.27,0.15-0.34c0.17-0.12,0.38-0.25,0.67-0.16c0.13,0.04,0.27,0.15,0.49,0.11
			c0.02,0,0.08-0.04,0.1-0.05c0.02,0,0.06,0.01,0.08,0v-0.03c0.03-0.01,0.09-0.06,0.13-0.06c0.14-0.02,0.18,0.02,0.29-0.03
			c0.08-0.04,0.17-0.13,0.26-0.16c0.13-0.04,0.24,0.02,0.39,0c0.03,0,0.2-0.06,0.16-0.05c0,0,0,0.03,0.03,0.02
			c0,0,0.01-0.05,0.02-0.05c0.02-0.01,0.11-0.03,0.13-0.03c0.13-0.02,0.35-0.02,0.46-0.02c0,0,0.04,0.03,0.06,0.02
			c0,0,0-0.05,0-0.05c0.03-0.02,0.2-0.09,0.08-0.06v-0.03c0,0,0.08-0.11,0.08-0.11c0.01,0,0.04,0.01,0.05,0
			c0.02-0.03-0.03-0.04-0.02-0.05c0.04-0.04,0.03-0.06,0.05-0.11c0.07-0.18,0.06-0.25-0.02-0.47c-0.02-0.05-0.04-0.12-0.08-0.16
			c-0.02-0.02-0.06-0.02-0.08-0.05c-0.02-0.03,0-0.06-0.02-0.1h-0.03c-0.03-0.01-0.03-0.07-0.05-0.08c-0.01-0.01-0.1-0.04-0.11-0.05
			c0,0,0.04-0.03,0.03-0.03c-0.09-0.04-0.14,0.02-0.23,0.02c-0.09,0-0.25-0.03-0.28-0.03l-0.06,0.03c0.03-0.01,0.04,0.02,0.05,0.02
			c-0.07,0.02-0.14,0.02-0.21,0.05c-0.03,0.01-0.09,0.06-0.13,0.06c-0.04,0.01-0.09-0.01-0.13,0c-0.03,0.01-0.05,0.05-0.08,0.07
			c-0.05,0.02-0.09,0.01-0.13,0.03c-0.01,0.01-0.02,0.06-0.03,0.06c-0.03,0.02-0.06,0-0.08,0.02c-0.01,0,0.01,0.03,0.02,0.03
			c-0.01,0.01-0.02,0.03-0.03,0.03c-0.04,0.03-0.14,0.07-0.18,0.08c-0.05,0.01-0.1-0.01-0.15,0c-0.02,0-0.02,0.04-0.03,0.05
			c-0.03,0.02-0.12,0.04-0.15,0.05c-0.04,0.01-0.24,0.01-0.18,0c-0.11,0.01-0.19,0.01-0.28-0.03c-0.02-0.01-0.07-0.01-0.03-0.03
			c0,0,0.04,0,0.02-0.02c-0.03-0.02-0.05,0-0.08-0.02c-0.03-0.02-0.07-0.07-0.1-0.1c0-0.01,0.03-0.04,0.02-0.05
			c-0.03-0.03-0.19-0.05-0.26-0.03c0,0-0.04,0.01-0.05,0.02c-0.06,0.02,0.01,0.03-0.02,0.07c-0.03,0.04-0.08,0.08-0.11,0.11
			c-0.01,0-0.03-0.02-0.03-0.02c-0.03,0.02,0.01,0.07-0.08,0.1c-0.1,0.03-0.21,0-0.26,0c-0.21,0-0.4,0.01-0.52,0.02
			c-0.04,0-0.13-0.02-0.13-0.02c-0.07,0-0.15,0.03-0.29,0c-0.1-0.02-0.19-0.11-0.28-0.15c-0.07-0.03-0.13-0.02-0.2-0.05
			c-0.04-0.02-0.14-0.12-0.15-0.16c-0.04-0.15,0.09-0.3,0.18-0.33c0.02,0,0.05,0.01,0.06,0c0.03-0.01,0.07-0.07,0.1-0.08
			c0.12-0.04,0.17,0.04,0.24,0.08c0.04,0.03,0.08,0.02,0.11,0.05c0.02,0.01,0.03,0.06,0.05,0.06c0.04,0.01,0.02-0.02,0.05-0.02
			c0,0,0.09,0.03,0.1,0.03c0.09,0.01,0.22,0.01,0.31,0c0.02,0,0.09-0.05,0.11-0.05c0.02,0,0.06,0.01,0.08,0v-0.03
			c0.03-0.01,0.06-0.03,0.08-0.03c0.11-0.02,0.22,0.01,0.31-0.02c0.05-0.02,0.19-0.13,0.24-0.13c0.03,0,0.27,0.08,0.33,0.1
			l0.03,0.03c0.09,0.01,0.24-0.04,0.36-0.02c0.06,0.01,0.12,0.06,0.21,0.05c0.08-0.01,0.19-0.06,0.26-0.08
			c0.04-0.01,0.07,0,0.11-0.02c0.02-0.01,0.02-0.04,0.03-0.05c0.06-0.04,0.19-0.09,0.26-0.1c0.14-0.02,0.26,0.04,0.39,0l0.03-0.03
			c0.02,0,0.02,0.03,0.05,0.02c0.04-0.03,0.08-0.13,0.13-0.16c0.02-0.01,0.05,0,0.06-0.02c0.02-0.02,0-0.05,0.02-0.06
			c0.01-0.01,0.05,0,0.05,0c0.01-0.01-0.01-0.11,0.02-0.15c0.02-0.04,0.28-0.23,0.37-0.2c0,0,0,0.06,0,0.06
			c0.03-0.01,0.04,0.01,0.06,0.02c0-0.02,0.01-0.05-0.02-0.05c0-0.03,0.01-0.07,0-0.1c0-0.02-0.02-0.05-0.03-0.08
			c-0.03,0-0.01,0.02-0.02,0.05c-0.05-0.03-0.1-0.05-0.15-0.08c-0.02-0.02,0-0.05,0-0.05c-0.02-0.01-0.03,0.01-0.05,0
			c-0.02-0.01-0.15-0.11-0.16-0.13c0,0,0-0.04,0-0.05c0,0-0.04-0.01-0.05-0.02c0-0.01,0.02-0.05,0.02-0.05
			c-0.07-0.05-0.12,0.02-0.19,0.03c-0.05,0.01-0.11-0.01-0.16,0c-0.08,0.01-0.12,0.09-0.23,0.08c-0.19-0.02-0.17-0.28-0.41-0.23
			c-0.06,0.01-0.05,0.07-0.05,0.07c-0.03,0.03-0.14,0.09-0.18,0.1c-0.03,0.01-0.07-0.01-0.1,0c-0.01,0-0.03,0.05-0.03,0.05
			c-0.03,0.01-0.01-0.03-0.03-0.02c-0.02,0.02,0.03,0.05,0.03,0.05c-0.05,0.07-0.15,0.18-0.24,0.21c-0.11,0.04-0.26,0-0.37,0.03
			c-0.04,0.01-0.08,0.06-0.11,0.08c-0.16,0.1-0.38,0.12-0.49-0.05c-0.03-0.05-0.07-0.14-0.05-0.24c0-0.01,0.07-0.11,0.08-0.11
			c0.01,0,0.04,0.01,0.05,0c0,0-0.01-0.05,0.03-0.06c0.04-0.01,0.09,0.01,0.13,0c0.01,0,0.03-0.05,0.03-0.05
			c0.01-0.01,0.04,0.01,0.05,0c0.02-0.02,0-0.04,0.02-0.06c0.01-0.02,0.1-0.09,0.11-0.1c0.01,0,0.04,0.01,0.05,0
			c0.01-0.01,0-0.05,0-0.07c0.03-0.08,0.15-0.05,0.24-0.06c0.01,0,0.06-0.05,0.08-0.05c0.16-0.02,0.18,0.11,0.33,0.05
			c0.02-0.01,0.01-0.04,0.02-0.05c0.02-0.01,0.03,0.01,0.05,0c0.03-0.01,0.04-0.08,0.06-0.1c0.02-0.02,0.05,0,0.08-0.02v-0.03
			c0.15-0.08,0.09-0.19,0.11-0.34c0.01-0.05,0.05-0.08,0.07-0.11c0.07,0.03,0.12,0.04,0.18,0.08c0.03,0.02,0.06,0.07,0.1,0.08
			c0.06,0.02,0.14,0.01,0.19,0c0.04-0.01-0.01,0,0.02,0.02h0.03c0-0.03-0.01-0.05,0-0.08c0.01-0.05,0.06-0.16,0-0.18
			c-0.02-0.01-0.03,0.01-0.05,0c-0.01,0,0-0.05,0-0.05c-0.07-0.03-0.04,0.05-0.11-0.03c-0.01-0.02-0.04-0.04-0.05-0.06
			c-0.02-0.08,0.03-0.22,0.08-0.24c0.03-0.02,0.03,0.02,0.06,0.02l0.03-0.03c0.02,0,0.02,0.01,0.03,0.02c0.02-0.09,0.02-0.07,0-0.16
			c-0.04,0-0.07-0.01-0.11,0c-0.01,0,0.02,0.04-0.03,0.06c0,0-0.05-0.01-0.06-0.02c-0.02,0.04-0.06,0.08-0.08,0.11
			c-0.06-0.01-0.1,0-0.15-0.02c-0.02-0.01-0.05-0.06-0.05-0.06c-0.02-0.01-0.05,0-0.07,0c-0.05-0.02-0.12-0.07-0.23-0.05
			c-0.09,0.02-0.11,0.13-0.18,0.16c-0.11,0.05-0.23,0.01-0.36,0.05c0,0-0.02,0.05-0.02,0.05c-0.05,0.04-0.14,0.04-0.19,0.06
			c-0.04,0.02-0.12,0.1-0.15,0.11c-0.1,0.05-0.18,0.02-0.28,0.03v0.03c-0.03,0-0.09,0.02-0.1,0.02c-0.03,0-0.06-0.02-0.06-0.02
			L60,61.84c-0.02,0.02-0.03,0.01-0.06,0.02c-0.02,0.06,0,0.09-0.03,0.13c-0.01,0.01-0.21,0.11-0.23,0.11
			c-0.07,0.01-0.13-0.03-0.18-0.02c-0.03,0.01,0.01,0.05-0.02,0.07c0,0-0.04,0-0.05,0c-0.01,0.01-0.01,0.05-0.02,0.06
			c-0.01,0.02-0.07,0.03-0.08,0.05c-0.01,0.02,0,0.05-0.02,0.07c-0.01,0.02-0.05,0.01-0.06,0.03c0,0.01,0,0.01,0,0.02
			c0,0,0,0.05-0.02,0.08c-0.02,0.02-0.07,0.02-0.08,0.05c-0.04,0.08-0.02,0.22-0.06,0.29c-0.01,0.02-0.05,0.02-0.06,0.03
			c-0.04,0.04-0.04,0.08-0.1,0.1c-0.11,0.04-0.27,0.02-0.41,0.02c-0.31,0-0.66,0-0.94-0.02c-0.07,0-0.13,0.01-0.19,0
			c-0.04-0.01-0.09-0.05-0.13-0.06v-0.03c-0.05-0.03-0.12-0.03-0.16-0.06c-0.04-0.03-0.06-0.11-0.06-0.11c-0.01-0.01-0.05,0-0.06,0
			c-0.04-0.01-0.11-0.12-0.1-0.18c0-0.02,0.09-0.14,0.11-0.15c0.02-0.01,0.02,0.03,0.05,0c0.02-0.02,0.01-0.06,0.03-0.08
			c0.04-0.04,0.09-0.03,0.13-0.07c0.05-0.04,0.06-0.11,0.15-0.13c0.05-0.01,0.13,0.02,0.15,0.02c0.08,0,0.3-0.02,0.37-0.05
			c0.02-0.01,0.05-0.06,0.06-0.07c0.06-0.04,0.12-0.06,0.18-0.1l0.02-0.03c0.03-0.01,0.03,0.03,0.05,0.02v-0.03
			c-0.03,0.02,0.03-0.05,0.03-0.05c0.06-0.03,0.34-0.03,0.44-0.02c0.01,0,0.02,0.02,0.05,0.02c0-0.01,0-0.01,0-0.02
			c0.03-0.01,0-0.04,0.02-0.05c0.03-0.02,0.06,0,0.08-0.02v-0.03c-0.01,0.01,0.01-0.05,0.03-0.06l0.13-0.1
			c0.03-0.01,0.03,0.03,0.05,0.02c0.01-0.01,0-0.06,0.02-0.06c0.05-0.03,0.14,0,0.16-0.02c0,0,0-0.04,0-0.05
			c0.01-0.03,0.06-0.02,0.08-0.03c0.02-0.01,0.01-0.05,0.03-0.06c0.14-0.09,0.32-0.03,0.54-0.08c0,0,0.01-0.03,0.02-0.03
			c0.02-0.01,0.05,0,0.06,0c0.08-0.02,0.16-0.1,0.21-0.16c0.01,0,0.02,0.02,0.03,0.02v-0.05c0.09-0.05,0.24-0.05,0.33-0.05
			c0.01-0.02-0.03-0.02-0.02-0.03c0.06-0.04,0.06-0.09,0.08-0.16h0.03v-0.03c-0.01-0.01-0.02,0.01-0.03,0.02c0-0.04,0-0.09,0-0.13
			c0.03-0.02,0.02,0.01,0.03-0.03c-0.03-0.02-0.06,0-0.08-0.03c-0.01-0.01-0.01-0.06-0.02-0.07c-0.01-0.01-0.04,0.02-0.07,0
			c0,0,0-0.04,0-0.05c-0.04-0.02-0.08-0.03-0.11-0.05c-0.02-0.01-0.03-0.06-0.05-0.07c-0.01,0-0.01,0-0.02,0
			c-0.01-0.02,0.01-0.05,0-0.06c-0.02-0.02-0.07,0-0.08-0.03c0-0.01,0-0.05,0-0.05c-0.03-0.01-0.05,0.02-0.05,0.02
			c0.05,0,0,0.01-0.02,0.02c-0.2,0.02-0.62,0.03-0.81,0c-0.02,0-0.05-0.05-0.11-0.03c-0.01,0,0.02,0.05,0.02,0.05
			c-0.02,0.01-0.03,0.01-0.07,0.02c0,0-0.02,0.07,0.02,0.05v0.03c-0.06,0.08-0.14,0.13-0.23,0.18c0,0.01,0,0.01,0,0.02
			c-0.02,0-0.01-0.03-0.03-0.02v0.03c-0.06,0.02-0.13,0.07-0.23,0.05c-0.04-0.01-0.09-0.08-0.13-0.1c-0.07-0.03-0.08,0.01-0.13-0.02
			c-0.01,0,0.08,0-0.02-0.05c-0.01,0.02,0.01,0.06,0,0.08c0,0.01-0.08,0.08-0.1,0.08c-0.01,0-0.05-0.01-0.06,0
			c-0.01,0.01,0,0.05,0,0.06c0,0.01-0.07,0.11-0.08,0.13c-0.02,0.02-0.41,0.24-0.44,0.24c-0.1,0.02-0.2-0.02-0.29,0
			c-0.14,0.02-0.22,0.16-0.39,0.15c-0.14-0.01-0.21-0.13-0.36-0.15c-0.2-0.02-0.38,0.02-0.55-0.03c-0.05-0.02-0.11-0.07-0.15-0.1
			c-0.06-0.04-0.12-0.08-0.15-0.15c-0.08-0.19-0.04-0.38,0.08-0.49c0.01-0.01,0.02-0.04,0.03-0.05c0.08-0.03,0.22,0,0.29,0
			c0.1,0,0.28-0.02,0.36-0.05c0.08-0.03,0.12-0.14,0.19-0.18c0.04-0.02,0.07,0,0.11-0.02c0.02-0.01,0.06-0.06,0.1-0.06
			c0.03-0.01,0.06,0.02,0.1,0c0,0-0.02-0.03-0.02-0.03c0.04-0.03,0.1-0.06,0.15-0.1v-0.03c0.01-0.04,0.14-0.13,0.18-0.15
			c0.14-0.07,0.33-0.02,0.52-0.05c0.14-0.02,0.23-0.16,0.36-0.2c0.09-0.03,0.17-0.01,0.28-0.03c0.05-0.01,0.16-0.06,0.21-0.06
			c0.03,0,0.07,0.02,0.08,0.02c0,0,0.04-0.05,0.05-0.05c0.08-0.04,0.16-0.04,0.23-0.08c0.03-0.02,0.06-0.07,0.1-0.08
			c0.09-0.03,0.21-0.01,0.33-0.02c0.16-0.01,0.3-0.04,0.47-0.05c0.01-0.02-0.01-0.05,0-0.07c0.02-0.07,0.12-0.05,0.16-0.08
			c0.02-0.01,0-0.03,0.02-0.05c0.01,0,0.01,0,0.02,0c0.03-0.02,0.05-0.09,0.08-0.1c0.02-0.01,0.05,0.01,0.06,0
			c0.01,0,0-0.02,0.02-0.03c-0.02-0.06-0.01-0.1-0.02-0.13c-0.05-0.01-0.09,0-0.15-0.03c-0.01,0-0.01-0.05-0.02-0.05
			c-0.02-0.01-0.06,0.01-0.08,0c-0.02,0-0.07-0.04-0.1-0.05v-0.03c-0.02-0.01-0.05,0-0.07-0.02c-0.01-0.01,0-0.06,0-0.07
			c-0.06-0.02-0.1-0.01-0.15-0.05c-0.05-0.04-0.02-0.08-0.03-0.1c-0.01-0.01-0.04-0.01-0.05-0.02c-0.02-0.02,0-0.05-0.02-0.08
			l-0.02-0.02c-0.03-0.03-0.03,0.01-0.05,0c-0.01-0.01-0.02-0.06-0.03-0.06c-0.01-0.01-0.05,0-0.06,0c0,0-0.02-0.03-0.02-0.03
			c-0.04-0.01-0.16,0.03-0.19,0.03c-0.14,0.01-0.33-0.07-0.44-0.02c-0.02,0.01-0.02,0.06-0.03,0.08c-0.02,0.03-0.03,0-0.05,0
			c0,0.03,0.01,0.04,0.02,0.07c-0.07,0.07-0.14,0.14-0.26,0.16c-0.15,0.02-0.36,0.02-0.5,0c-0.05-0.01-0.11-0.07-0.18-0.05
			c0,0,0.01,0.04,0.02,0.05c-0.05,0.02-0.15,0.06-0.16,0.08c-0.02,0.02-0.01,0.08-0.03,0.1c0,0-0.05,0.01-0.05,0.02
			c-0.02,0.02,0.01,0.05-0.02,0.07c-0.09,0.07-0.26,0.03-0.37,0.08c-0.06,0.03-0.09,0.12-0.16,0.15c-0.1,0.04-0.22,0-0.34,0.03
			c-0.01,0-0.02,0.04-0.03,0.05c-0.03,0.02-0.16,0.07-0.18,0.08c-0.15,0.04-0.31-0.02-0.41-0.08c-0.01-0.01-0.02-0.04-0.03-0.05
			c-0.04-0.02-0.08-0.01-0.11-0.03c-0.07-0.04-0.11-0.13-0.15-0.21c-0.02-0.05-0.08-0.15-0.05-0.24c0.03-0.09,0.21-0.1,0.29-0.15
			c0.02-0.01,0.05-0.05,0.06-0.06c0.09-0.06,0.17-0.09,0.26-0.15c0,0,0.01-0.03,0.02-0.03c0.06-0.03,0.12-0.01,0.18-0.05v-0.03
			c0,0,0.16-0.11,0.16-0.11c0.04-0.02,0.07,0,0.11-0.02c0.07-0.02,0.18-0.09,0.26-0.1c0.05-0.01,0.02,0.05,0.1,0.02
			c0.01,0-0.03-0.03-0.03-0.03c0.05-0.03,0.15-0.09,0.18-0.13c0.01-0.01-0.01-0.04,0-0.05c0.01-0.02,0.05-0.03,0.07-0.05
			c0.05-0.07,0.08-0.16,0.15-0.21c0.05-0.04,0.16-0.09,0.26-0.06c0,0-0.03,0.05,0.03,0.03c0,0-0.01-0.04-0.02-0.05
			C57.91,57,57.93,57,58,56.99c0.05-0.13,0.07-0.17,0.18-0.19c0,0-0.01-0.03-0.02-0.03c0,0-0.03,0.01-0.03,0.02
			c0.01-0.02,0.05-0.1,0.06-0.11c0,0,0.05-0.02,0.05-0.02c0.01-0.03-0.01-0.07,0-0.1c0.01-0.03,0.05-0.08,0.06-0.11h0.03
			c0.02-0.04,0.03-0.13,0.03-0.16c-0.04-0.01-0.12-0.03-0.16-0.05c-0.01-0.01-0.02-0.05-0.03-0.05c-0.08-0.03-0.24,0.07-0.34,0.08
			c-0.12,0.01-0.25,0-0.37,0c-0.35,0-0.77,0.02-1.02-0.08c-0.1-0.04-0.18-0.14-0.26-0.21c-0.08-0.07-0.2-0.12-0.15-0.28
			c0,0,0.04-0.06,0.05-0.07l0.02-0.02c0.19-0.07,0.37,0.02,0.6,0.03c-0.06-0.01,0.17,0,0.21,0c0.18-0.02,0.27-0.17,0.39-0.18
			c0.13-0.02,0.18,0.08,0.31,0.07c0.07-0.01,0.17-0.08,0.24-0.1c0.17-0.04,0.34-0.01,0.49-0.06c0.1-0.03,0.19-0.09,0.29-0.13
			c0.01-0.01,0.05-0.05,0.06-0.05c0.04-0.01,0.11,0.01,0.13,0c0.02-0.01,0.01-0.05,0.02-0.07c0.08-0.02,0.2-0.08,0.29-0.06
			c0,0-0.02,0.03-0.02,0.03c0.01,0,0.04,0,0.05,0c0.01-0.01-0.02-0.04-0.02-0.05c0.03-0.02,0.07-0.01,0.1-0.03v-0.03
			c-0.01,0.02,0.03-0.05,0.03-0.06c0.01,0,0.03,0.02,0.03,0.02c0.01-0.01,0-0.05,0.02-0.06c0.02-0.02,0.05,0,0.06-0.02
			c0.01-0.01,0.05-0.07,0.06-0.08c0.07-0.03,0.13,0.01,0.2,0v-0.03c0.06-0.02,0.11,0,0.16-0.03c0.04-0.02,0.07-0.09,0.11-0.1
			c0.11-0.03,0.2,0.02,0.26,0.05c0,0-0.02,0.03-0.02,0.03c0.04,0.02,0.1,0.03,0.15,0.05v0.03c0.06,0.02,0.12-0.03,0.16-0.03
			c0.17-0.02,0.35,0.03,0.49-0.03c0.02-0.01,0.03-0.05,0.05-0.06c0.03-0.02,0.11-0.06,0.15-0.06c0.08-0.02,0.15,0,0.24-0.02
			l0.06-0.03c0.04,0,0.06,0.03,0.08,0.02c0.04-0.01,0.05-0.09,0.08-0.11c0.05-0.04,0.12-0.03,0.16-0.06
			c0.02-0.01,0.01-0.07,0.03-0.08c0.02-0.02,0.04,0.01,0.05,0v-0.03c0-0.01,0.08-0.05,0.08-0.05c0.07-0.15-0.06-0.21-0.11-0.28
			c-0.02-0.03-0.02-0.09-0.05-0.11c-0.02-0.02-0.14-0.04-0.16-0.05c-0.02-0.01-0.03-0.03-0.03-0.03c-0.03-0.01-0.07,0.02-0.08,0.02
			c-0.07,0-0.14-0.01-0.21-0.03c-0.14-0.04-0.43-0.16-0.58-0.13c0,0-0.1,0.06-0.11,0.07c-0.08,0.02-0.16,0.01-0.21,0.02v0.03
			c-0.04,0-0.05-0.05-0.08-0.03c0,0,0.01,0.04,0.02,0.05c-0.01,0.01-0.02,0.02-0.03,0.03s-0.05,0-0.06,0c0,0,0.01,0.03,0.02,0.03
			c-0.01,0-0.03,0.03-0.03,0.03c-0.02,0.01-0.05-0.01-0.06,0l-0.05,0.08c-0.06,0.06-0.3,0.23-0.41,0.24
			c-0.08,0.01-0.14-0.01-0.21-0.02l-0.02-0.05c-0.01-0.01-0.03,0.01-0.02,0.02c-0.04-0.03-0.08-0.04-0.13-0.06
			c0,0,0.02-0.03,0.02-0.03c-0.11-0.03-0.2,0-0.29-0.03c-0.05-0.02-0.03-0.06-0.07-0.06c-0.1-0.02-0.22,0.07-0.31,0.08
			c-0.26,0.05-0.58-0.04-0.86,0.02c-0.11,0.02-0.17,0.15-0.34,0.11c-0.03-0.01-0.08-0.06-0.1-0.08c-0.02-0.02-0.06-0.06-0.06-0.08
			c-0.05-0.23,0.25-0.42,0.41-0.46c0.06-0.01,0.11,0,0.16-0.02c0.08-0.03,0.15-0.11,0.23-0.15c0.08-0.03,0.13-0.02,0.23-0.05
			c0.03-0.01,0.09-0.06,0.13-0.06c0.01,0,0.04,0,0.05,0c0.07-0.04,0.1-0.19,0.2-0.21c0.08-0.02,0.23,0.04,0.31,0.05
			c0.19,0.01,0.36-0.09,0.55-0.11c0.13-0.02,0.23,0.01,0.33-0.03c0.05-0.02,0.13-0.08,0.13-0.15c0-0.01-0.01-0.07-0.02-0.05
			c0,0,0-0.01,0-0.02c-0.15-0.06-0.47-0.19-0.41-0.44c0.01-0.03,0.06-0.07,0.08-0.1c0.04-0.05,0.08-0.15,0.15-0.16
			c0.08-0.02,0.21,0,0.26,0.02c0.37,0.09-0.04,0.57,0.2,0.67c0.06,0.03,0.13,0.01,0.21,0.02c0.05,0,0.15,0.04,0.19,0.05
			c0.14,0.03,0.32,0.01,0.46,0c0.04,0,0.1,0.01,0.13,0c0.02-0.01,0.02-0.06,0.03-0.07c0.04-0.03,0.1-0.01,0.15-0.03
			c0.02-0.01,0.03-0.06,0.05-0.06c0.03-0.02,0.06,0,0.08-0.02c0.01-0.01,0-0.04,0-0.05c0.01-0.02,0.04-0.01,0.05-0.02
			c0.02-0.02,0.02-0.12,0.03-0.16c0.03-0.09,0.14-0.2,0.23-0.23c0.14-0.04,0.27,0.05,0.37,0.1c0,0-0.06,0.03-0.05,0.03
			c0,0,0.05,0,0.02,0.02c0.03,0,0.1,0.01,0.16,0c0,0,0.05-0.01,0.08-0.02c0,0-0.04-0.03-0.03-0.03c0.09-0.04,0.22-0.06,0.29-0.11
			c0.01-0.01,0.01-0.06,0.03-0.06c0.05-0.03,0.11,0,0.16-0.03c0.01-0.01,0.02-0.04,0.03-0.05c0.02-0.01,0.05,0.01,0.06,0
			c0.03-0.02,0.01-0.05,0.03-0.08c0.03-0.05,0.1-0.06,0.15-0.1c0.03-0.02,0.03-0.06,0.06-0.08c0.01,0,0.01,0,0.02,0
			c0.04-0.09-0.02-0.15-0.08-0.18c-0.03-0.01-0.05,0.01-0.08,0c-0.02,0-0.02-0.04-0.03-0.05c-0.07-0.05-0.14-0.07-0.21-0.11
			c0.03,0,0-0.06,0-0.07c-0.02,0-0.1-0.01-0.16,0.02c0,0,0.01,0.04,0.02,0.05c-0.09,0.02-0.16,0.06-0.23,0.08
			c-0.09,0.02-0.19,0-0.24,0.02c-0.04,0.01-0.1,0.07-0.15,0.08c-0.17,0.03-0.35-0.01-0.52,0c-0.24,0.02-0.58,0.03-0.8,0.02
			c-0.33-0.02-0.69,0.03-0.99-0.02c-0.01,0.03,0.01,0.03,0.02,0.05c-0.05,0.04-0.13,0.14-0.2,0.16c-0.05,0.02-0.08,0-0.13,0.02
			c-0.01,0-0.02,0.05-0.03,0.05c-0.01,0-0.03-0.02-0.07-0.02c0,0,0.01,0.03,0.02,0.03c-0.02,0.01-0.04,0.02-0.05,0.03
			c-0.07,0.05-0.12,0.05-0.21,0.08c0,0.01-0.02,0.05,0,0.07c-0.01,0.01-0.06,0.07-0.07,0.08c-0.01,0.04,0.03,0.13,0.03,0.16
			c0.03,0.26-0.03,0.38-0.28,0.36c0,0,0.08,0.03,0.08,0.03c0,0-0.06,0.01-0.03,0.02c-0.22,0.05-0.54,0.1-0.76,0.02
			c-0.05-0.02-0.21-0.13-0.26-0.16c-0.01-0.01-0.03-0.06-0.05-0.06c-0.01,0-0.15,0-0.15,0s0.02-0.03,0.02-0.03
			c0.18,0.02,0.12-0.03,0.24-0.07c0.1-0.03,0.18-0.02,0.26-0.03c0.07-0.01,0.18-0.06,0.23-0.06c0.02,0,0.05,0.03,0.08,0.02
			c0.02-0.01-0.02-0.05-0.02-0.05c0.07-0.02,0.09-0.02,0.18-0.03l0.02-0.05c0.02-0.01,0.05,0.01,0.07-0.02
			c0.02-0.03-0.02-0.03-0.02-0.06c0-0.02,0.04-0.07,0.05-0.08c0.03-0.06,0.01-0.04,0.05-0.11c-0.05-0.02,0,0-0.05,0.02
			c0-0.01,0-0.06,0-0.06c-0.04-0.02,0.01,0,0.03,0c0,0,0-0.05,0-0.05c-0.03-0.01-0.01,0.02-0.05,0.02c-0.02,0-0.07-0.06-0.08-0.07
			c-0.05-0.01-0.17-0.01-0.19-0.02c-0.17-0.01-0.28,0.04-0.44,0c-0.08-0.02-0.13-0.13-0.19-0.16c-0.12-0.06-0.33-0.05-0.39-0.16
			c-0.02-0.03,0-0.06-0.02-0.1c0.01-0.01,0.03-0.01,0.03-0.03c0.16-0.05,0.32,0,0.5-0.02c0.22-0.03,0.42-0.14,0.68-0.13
			c0.14,0.01,0.28,0.07,0.45,0.05l0.07-0.03c0.04-0.01,0.09,0.01,0.13,0c0,0,0.03-0.06,0.03-0.07C59.4,51,59.45,51,59.49,50.98
			c0.06-0.04,0.13-0.11,0.21-0.13c0.17-0.03,0.28,0.05,0.44,0.03c0.13-0.01,0.35-0.06,0.49-0.1l0.03-0.03
			c0.03-0.01,0.05,0.01,0.08,0c0.01,0,0.05-0.05,0.06-0.05c0.11-0.03,0.2,0,0.31-0.03c0.06-0.02,0.14-0.08,0.2-0.1
			c0.09-0.04,0.16-0.04,0.24-0.08c0.04-0.03,0.1-0.09,0.16-0.1c0.12-0.02,0.19,0.04,0.26,0.05c0.04,0.01,0.13-0.03,0.16-0.03
			c0.05,0,0.05,0.04,0.11,0.02c0.01,0-0.03-0.03-0.03-0.03c0.02-0.01,0.12-0.07,0.13-0.07c0,0-0.01,0.03,0.02,0.02
			c0.01,0,0.01-0.04,0.02-0.05c0,0,0.07-0.02,0.07-0.02c0.01-0.03-0.01-0.08,0-0.11c0-0.03,0.04-0.1,0.05-0.13
			c0.02-0.12-0.02-0.25,0.02-0.36c0.02-0.05,0.11-0.15,0.15-0.19c0.01,0,0.05,0.03,0.05,0.03c0.02-0.12,0.02-0.09,0.03-0.21
			c-0.03,0-0.13-0.03-0.16-0.03c-0.21-0.01-0.45,0.03-0.68,0.02c-0.17-0.01-0.41-0.04-0.58,0c-0.07,0.01-0.11,0.08-0.16,0.1
			c-0.06,0.02-0.13-0.01-0.18,0v0.03c-0.08,0.03-0.13,0.03-0.21,0.06c-0.03,0.01-0.11,0.08-0.16,0.08
			c-0.13,0.01-0.25-0.05-0.34-0.07c-0.02,0-0.04,0.02-0.08,0.02l-0.03-0.03c-0.13-0.03-0.23-0.01-0.33-0.06
			c-0.06-0.03-0.09-0.11-0.16-0.15v-0.03c-0.04-0.01-0.12,0.01-0.13,0.02c-0.06,0-0.12-0.01-0.18,0c-0.03,0-0.1,0.05-0.13,0.05
			c-0.03,0,0-0.03-0.03-0.02c0,0-0.1,0.09-0.05,0.05c0,0-0.01-0.03-0.03-0.02c0,0,0,0.04,0,0.05c-0.06,0.03-0.08,0.03-0.16,0.05
			l-0.02,0.02c-0.09,0.02-0.2-0.07-0.23-0.11c-0.05-0.09-0.07-0.28,0.02-0.34c0.13-0.09,0.41-0.03,0.62-0.05
			c0.16-0.01,0.32-0.03,0.49-0.05c0.05-0.01,0.13-0.06,0.18-0.06c0.1-0.02,0.17,0,0.28-0.02c0.07-0.01,0.18-0.05,0.26-0.06
			c0.09-0.02,0.15,0,0.23-0.03c0.04-0.02,0.09-0.07,0.13-0.1c-0.01-0.18-0.1-0.23-0.26-0.31c-0.01-0.01-0.02-0.01-0.05-0.02v-0.03
			c-0.02,0-0.03,0.03-0.07,0.02c-0.08-0.03-0.15-0.11-0.24-0.13c-0.12-0.02-0.22,0.01-0.29-0.05c-0.05-0.04-0.06-0.18-0.03-0.26
			c0.01-0.02,0.13-0.17,0.15-0.18c0.01,0,0.04,0.01,0.05,0c0.01-0.01,0.02-0.05,0.03-0.06c0.06-0.05,0.13-0.08,0.2-0.13
			c0.04-0.03,0.08-0.09,0.11-0.11c0.08-0.05,0.18-0.06,0.26-0.1c0.02-0.01,0.06-0.06,0.1-0.06c0.13-0.02,0.17,0.05,0.24,0.08
			c0.07,0.02,0.15,0.01,0.21,0.05c0.14,0.08,0.13,0.37,0.44,0.31c0.02,0,0.06-0.04,0.08-0.05c0.02,0,0.05,0.01,0.07,0
			c0.01,0,0-0.04,0-0.05c0.01-0.02,0.05-0.02,0.06-0.03c0.02-0.02,0.02-0.05,0.03-0.06c0.02-0.02,0.14-0.09,0.15-0.1
			c0.01-0.02-0.03-0.02-0.02-0.03c0.11-0.05,0.02-0.65-0.02-0.73c-0.02-0.04-0.1-0.08-0.11-0.11c-0.01-0.03,0.01-0.05,0-0.08
			c0.09-0.05,0.13-0.08,0.23-0.02l0.02,0.03c0.03,0,0.08-0.03,0.1-0.03c0.03,0,0.03,0.02,0.05,0.02c0.03-0.01,0.05-0.08,0.08-0.1
			c0.02-0.01,0.06,0,0.08-0.02c0.02-0.02,0-0.04,0.02-0.06c0.01-0.03,0.07-0.07,0.08-0.1c0.03-0.07,0.01-0.13,0.03-0.2
			c0-0.01,0.04-0.02,0.05-0.03c0.01-0.02-0.01-0.03,0-0.05c0.01-0.03,0.14-0.18,0.16-0.2c0.01-0.01,0.08-0.01,0.08-0.02
			c0.02-0.03,0-0.1,0.02-0.13c0.02-0.03,0.06-0.01,0.08-0.03c0.02-0.02,0.03-0.09,0.05-0.11c0.02-0.03,0.08-0.03,0.1-0.05
			c0.01-0.01,0.02-0.05,0-0.05c0.06-0.06,0.13-0.18,0.21-0.21c0.09-0.03,0.1,0.03,0.15,0.02v-0.05c0.05-0.02,0.09-0.03,0.15-0.05
			V44.9c-0.02,0.01-0.02,0.01-0.05,0.02c0.12-0.09,0.19-0.12,0.39-0.15c0.02-0.04-0.02-0.02-0.02-0.05c0-0.01,0.04-0.03,0.05-0.03
			c0.09-0.12,0.15-0.2,0.32-0.23c0.03-0.01,0.08,0.02,0.11,0c0.02-0.01,0-0.04,0.02-0.06c0.01-0.02,0.25-0.19,0.28-0.19
			c0.1-0.04,0.25-0.05,0.37-0.03c0.05,0,0.14,0.04,0.16,0.03l0.02-0.03c0.02-0.01,0.05,0,0.07,0c0.03-0.01,0.09-0.06,0.13-0.07
			c0.03,0,0,0.03,0.03,0.02c0.01,0,0.04-0.05,0.05-0.05c0.07-0.02,0.15,0.01,0.23,0c0.02,0,0.1-0.05,0.11-0.05
			c0.03,0,0,0.03,0.03,0.02V44c0.05-0.02,0.09-0.04,0.13-0.05c0.12-0.02,0.24,0.02,0.31,0.03c0.2,0.03,0.37-0.05,0.57-0.02
			c0.1,0.02,0.15,0.1,0.31,0.08c0.04-0.01,0.1-0.04,0.16-0.06c0.01,0,0.04-0.05,0.05-0.05c0.02,0,0.01,0.03,0.03,0.02l0.05-0.07
			c0.07-0.02,0.14,0,0.19-0.02c0.08-0.03,0.13-0.13,0.2-0.16c0.03-0.02,0.3-0.1,0.32-0.1c0.04,0,0.02,0.02,0.07,0.02v-0.03
			c0.03,0,0.06,0.01,0.1,0c0-0.01,0-0.01,0-0.02c0.02,0,0.05,0,0.07,0c0.02,0,0.07,0.05,0.08,0.05c0.02,0,0.05-0.01,0.1,0
			c0.05,0.01,0.14,0.07,0.19,0.08c0.05,0.01,0.19-0.01,0.28,0.02c0.07,0.02,0.09,0.09,0.15,0.13c0.08,0.06,0.29,0.14,0.41,0.15
			c0.1,0.01,0.19-0.04,0.26-0.05c0.1-0.01,0.23,0.01,0.31,0.02c0.22,0.02,0.42-0.04,0.63-0.02c0.01,0,0.12,0.03,0.13,0.03
			c0.14,0.01,0.28-0.02,0.42,0c0.06,0.01,0.16,0.06,0.21,0.06c0.15,0.03,0.28,0.01,0.37,0.08c0.18,0.14,0.11,0.39-0.11,0.42
			c-0.27,0.04-0.54-0.04-0.73-0.1c0,0-0.07,0-0.1,0.02c-0.03,0.02,0.03,0.02,0.03,0.02c-0.01,0.02-0.02,0.04-0.03,0.06
			c-0.01,0.02-0.1,0.05-0.1,0.05c-0.04,0.05,0,0.08-0.02,0.15c0,0-0.01,0.03-0.02,0.05H71c-0.01,0.03,0.02,0.03,0.02,0.06
			c0,0.04-0.07,0.29,0,0.33c0.01,0.01-0.02,0.02-0.02,0.03c0,0.01,0.06,0.05,0.07,0.07c0.02,0.05,0.01,0.09,0.02,0.13
			c0.03-0.01,0.01-0.03,0.02-0.06c0.08,0.05,0.2,0.13,0.29,0.16c0.13,0.04,0.26,0.03,0.39,0.06c0.07,0.02,0.16,0.09,0.23,0.1
			c0.1,0.02,0.18-0.03,0.24-0.03c0.12-0.01,0.28-0.01,0.41,0c0.22,0.02,0.35,0.17,0.55,0.21c0.07,0.02,0.19,0.04,0.26,0.03
			c0.08-0.01,0.17-0.06,0.28-0.05c0.14,0.01,0.28,0.11,0.41,0.13c0.2,0.04,0.44-0.01,0.62,0.05c0.04,0.02,0.15,0.08,0.19,0.11
			l0.02,0.03c0.15,0.04,0.25-0.02,0.42,0c0.11,0.01,0.24,0.08,0.34,0.06l0.02-0.03c0.05-0.02,0.15-0.03,0.21-0.02
			c0.17,0.03,0.3,0.24,0.44,0.31c0.03,0.02,0.05,0.04,0.1,0.03c0.1-0.02,0.13-0.22,0.26-0.1c0.01,0.01,0.04,0.03,0.05,0.05
			c0.01,0.03-0.01,0.05,0,0.08c-0.05,0.01-0.1,0.04-0.18,0.03c-0.05,0-0.11-0.05-0.18-0.03c-0.02,0-0.04,0.04-0.05,0.05
			c-0.04,0.02-0.09,0.02-0.13,0.05c-0.02,0.01-0.05,0.06-0.06,0.06c-0.03,0.02-0.1,0.02-0.1,0.02c-0.02,0.01-0.04,0.05-0.06,0.06
			c-0.1,0.04-0.34,0.04-0.45,0.02c-0.05-0.01-0.12-0.07-0.16-0.08c-0.09-0.02-0.23,0.01-0.29,0.02c-0.11,0.01-0.23-0.01-0.34,0
			c-0.01,0-0.1,0.03-0.11,0.03c-0.11,0.01-0.27-0.03-0.36-0.02v0.03c-0.04,0.01-0.13,0.05-0.15,0.05c-0.03,0-0.01-0.02-0.05-0.02
			c-0.03,0.08-0.03,0.12-0.05,0.21c-0.01,0.04-0.02,0.08-0.03,0.15c0,0,0.02-0.04,0.03-0.03l0.02,0.05c0.16,0.12,0.46,0.04,0.7,0.06
			c0.14,0.02,0.27,0.11,0.42,0.11c0.11,0.01,0.24-0.04,0.37-0.02c0.03,0.01,0.1,0.05,0.13,0.06c0.07,0.02,0.13,0.02,0.19,0.05
			l0.03,0.03c0.07,0.01,0.21-0.04,0.29-0.03c0.16,0,0.31,0.1,0.46,0.11c0.22,0.03,0.45-0.03,0.67,0c0.11,0.01,0.24,0.08,0.32,0.13
			c0.01,0.01,0.03,0.04,0.05,0.05c0.08,0.03,0.14,0.03,0.21,0.07c0.03,0.02,0.09,0.08,0.13,0.08c0.17,0.02,0.22-0.27,0.5-0.16
			c0.08,0.03,0.2,0.2,0.16,0.36c0,0.02-0.04,0.04-0.05,0.05c-0.09,0.11-0.2,0.03-0.34,0.05c-0.12,0.01-0.16,0.11-0.24,0.16
			c-0.1,0.07-0.4,0.13-0.57,0.07c-0.02-0.01-0.22-0.2-0.23-0.21c-0.01-0.02,0.01-0.03,0-0.05c-0.04,0.01-0.01,0.05-0.05,0.02
			c-0.01-0.01-0.02-0.05-0.03-0.05c-0.08-0.02-0.15,0.01-0.21,0.02c0,0,0,0.05,0,0.05c-0.03,0.02-0.07,0.01-0.1,0.03
			c-0.01,0.01,0.01,0.03,0.02,0.03c-0.05,0.03-0.12,0.11-0.16,0.13c-0.13,0.05-0.31-0.04-0.49-0.02c-0.03,0-0.2,0.05-0.24,0.06
			c-0.01,0-0.05,0.05-0.06,0.05c-0.11,0.02-0.16-0.04-0.23-0.05c-0.09-0.02-0.23-0.03-0.29-0.03c-0.14-0.01-0.31,0.02-0.44,0.05
			c-0.02,0-0.08,0.05-0.1,0.05c-0.15,0.03-0.24-0.07-0.34-0.03v0.03c-0.02,0.01-0.07,0.01-0.08,0.03c-0.07,0.18,0.09,0.21,0.16,0.26
			c0.05,0.04,0.09,0.11,0.15,0.15c0.03,0.02,0.05,0,0.08,0.02c0.01,0,0.05,0.05,0.06,0.05c0.28,0.06,0.45-0.12,0.7-0.15
			c0.25-0.03,0.41,0.08,0.62,0.08c0.04,0,0.1-0.04,0.16-0.05c0.1-0.01,0.19,0.02,0.24,0.03c0.23,0.03,0.38-0.06,0.62-0.03
			c0.14,0.01,0.29,0.06,0.41,0.11c0.01,0,0.06,0.05,0.06,0.05c0.01,0,0.04,0,0.05,0c0,0,0.03,0.05,0.03,0.05
			c0.09,0.03,0.14-0.04,0.2-0.06c0.14-0.07,0.35-0.12,0.52-0.07c0.05,0.02,0.12,0.02,0.15,0.07c0.12,0.17-0.09,0.16-0.19,0.19
			l-0.11,0.07c0,0,0.01,0.05-0.02,0.06c0,0-0.05,0.01-0.05,0.02c-0.01,0.01,0.01,0.05,0,0.07l-0.03,0.02
			c-0.02,0.05-0.01,0.11-0.02,0.16c0,0-0.03-0.04-0.03-0.03c0,0-0.03,0.07-0.02,0.05c0.02,0.01,0.01,0.04,0.02,0.07
			c0.02-0.02,0.01-0.03,0.02-0.07c0,0,0.04,0.05,0.02,0.07c0.01,0.01,0.11,0.1,0.11,0.1v0.03c0.02,0.01,0.06-0.01,0.08,0
			c0.13,0.03,0.25,0.21,0.21,0.42c-0.01,0.07-0.07,0.14-0.06,0.24c0,0.07,0.06,0.18,0.02,0.26c-0.02,0.03-0.08,0.03-0.11,0.05
			c-0.05,0.04-0.08,0.07-0.15,0.11c0,0.01,0,0.06,0,0.07c-0.01,0-0.05-0.01-0.05,0c0,0.01,0,0.18,0,0.18c0,0,0.05,0,0.05,0
			c0.01,0.03-0.01,0.05,0,0.06c0.01,0.02,0.03,0.01,0.05,0.02c0.04,0.02,0.08,0.06,0.15,0.05c0.07-0.01,0.12-0.11,0.16-0.15
			c0.13-0.11,0.25-0.25,0.39-0.34c0.1-0.06,0.21-0.07,0.36-0.08c-0.01,0.04,0.03,0.03,0,0.08c-0.01,0.02-0.03,0-0.05,0.02
			c-0.06,0.03-0.09,0.15-0.07,0.26c0.02,0.07,0.1,0.1,0.13,0.15c0.06,0.09,0.06,0.26,0,0.36c-0.05,0.09-0.24,0.14-0.36,0.07
			c-0.03-0.02-0.02-0.07-0.02-0.07c-0.03-0.02-0.11-0.03-0.15-0.05l0.06-0.03c-0.1,0.01-0.12,0.01-0.18,0.05
			c-0.02,0.02-0.04,0.02-0.06,0.03c0.01,0.12,0.02,0.18,0.05,0.28c0.01,0.03,0.06,0.09,0.07,0.13c0.01,0.05,0,0.08,0.02,0.13
			c0.02,0.04,0.12,0.09,0.13,0.13c0.01,0.04,0,0.11,0,0.15c-0.02,0-0.02,0.03-0.03,0.03c-0.02,0.01-0.05-0.01-0.06,0
			c-0.06-0.06-0.13-0.17-0.26-0.11c-0.01,0,0.01,0.03,0.02,0.03c-0.03,0.02-0.06,0.03-0.08,0.05c0,0,0,0.08,0.02,0.05
			c0.02,0.09,0.1,0.18,0.08,0.29c-0.01,0.04-0.07,0.08-0.08,0.11c-0.03,0.06-0.02,0.13-0.05,0.18c-0.01,0.02-0.1,0.06-0.11,0.08
			c-0.01,0.02,0,0.05-0.02,0.07c-0.01,0.02-0.05,0.02-0.06,0.03v0.03c0,0.01-0.1,0.11-0.11,0.11c-0.01,0-0.04-0.01-0.05,0
			c-0.03,0.03,0.01,0.03,0,0.05c-0.03,0.06-0.14,0.1-0.18,0.11c0.01,0.08,0.02,0.14,0.03,0.23c0-0.02,0.02,0.05,0.02,0.06
			l-0.03,0.02v0.03c0.02,0,0.03-0.02,0.06-0.02l0.06,0.08c0.04,0.02,0.05-0.02,0.1-0.02l0.06,0.03c0.07,0.01,0.12-0.01,0.18-0.02
			v-0.03c0.01-0.01,0.04-0.03,0.05-0.05c0.03-0.11-0.02-0.2,0.02-0.31l0.03-0.02c0.05-0.08,0.1-0.1,0.16-0.16
			c0.05-0.05,0.09-0.16,0.16-0.18c0.21-0.06,0.28,0.11,0.37,0.18c0.09,0.07,0.19,0.1,0.28,0.16c0.1,0.07,0.15,0.2,0.26,0.26
			c0.08,0.05,0.2,0.03,0.28,0.08c0.14,0.08,0.11,0.36,0.39,0.16c0.03-0.02,0.06-0.09,0.08-0.11c0.1-0.09,0.15-0.04,0.07-0.2
			c-0.08-0.14-0.16-0.47-0.42-0.41c-0.03,0.01-0.05,0.06-0.07,0.06c-0.03,0.02-0.06,0-0.1,0.02c0-0.01-0.01-0.03-0.02-0.03
			c-0.03-0.02-0.08-0.08-0.08-0.11c-0.01-0.12,0.08-0.11,0.13-0.16c0.03-0.03,0.04-0.09,0.08-0.11c0.1-0.08,0.29-0.1,0.36-0.21
			c0.05-0.08-0.01-0.19,0.02-0.33c0.02-0.11,0.14-0.19,0.11-0.37c-0.02-0.1-0.12-0.12-0.16-0.19c-0.02-0.04,0-0.07-0.02-0.11
			c-0.02-0.09-0.09-0.25-0.18-0.28c-0.02,0-0.05,0.01-0.07,0c-0.02,0.04-0.04,0.08-0.06,0.11c-0.02,0.02-0.02,0.04-0.03,0.07
			c-0.1,0-0.24-0.02-0.19-0.2c0,0,0.03-0.06,0.03-0.06c0.04-0.04,0.17-0.05,0.21-0.08c0.02-0.02,0.02-0.06,0.03-0.08
			c0.02-0.03,0.17-0.24,0.19-0.24c0.06-0.02,0.27,0.05,0.39,0.03c0.13-0.02,0.24-0.11,0.34-0.13c0.13-0.02,0.21,0.04,0.34,0.02
			c0.06-0.01,0.13-0.06,0.19-0.06c0.18-0.02,0.33,0.04,0.52,0.02c0.12-0.02,0.22-0.17,0.36-0.13c0.08,0.02,0.2,0.23,0.18,0.37
			c-0.01,0.1-0.14,0.32-0.21,0.36c-0.14,0.06-0.49,0.08-0.67,0.05c-0.05-0.01-0.12-0.03-0.18-0.05c0,0,0.02-0.03,0.02-0.03
			c-0.04-0.01-0.09,0.02-0.1,0.02c-0.08,0-0.1-0.02-0.15-0.02v0.03c-0.04,0-0.1,0.01-0.11,0.02c-0.09,0.01-0.17-0.01-0.26,0.02
			c-0.05,0.01-0.08,0.08-0.11,0.1c-0.01,0-0.04-0.01-0.05,0c-0.02,0.03-0.04,0.14-0.05,0.18c0,0.02-0.03,0.07-0.02,0.11
			c0.01,0.06,0.1,0.08,0.13,0.13c0.04,0.06,0.02,0.13,0.08,0.16c0.02,0.01-0.03,0.01-0.02,0.03c0.01,0.02,0.05,0.01,0.06,0.03
			c0.05,0.04,0.04,0.11,0.11,0.15c0,0.01,0,0.01,0,0.02c0.12,0.06,0.29-0.02,0.39-0.03c0.11-0.01,0.26,0.01,0.34,0.02
			c0.23,0.02,0.43-0.01,0.63-0.05c0.12-0.02,0.19-0.09,0.28-0.13c0.1-0.04,0.17-0.03,0.28-0.06c0.08-0.03,0.21-0.11,0.31-0.11
			c0.04,0,0.03,0.03,0.08,0.02c0.05-0.01-0.02-0.02-0.02-0.02c0.09-0.02,0.07-0.04,0.16,0c0.03,0.02,0.06,0.02,0.08,0.05
			c0.01,0.02,0.01,0.04,0.02,0.07c0.01,0.02,0.06,0.07,0.07,0.1c0.03,0.16-0.03,0.28-0.07,0.37c-0.01,0.04,0,0.05-0.02,0.08
			c-0.01,0.02-0.05,0.02-0.07,0.03c-0.03,0.03-0.03,0.07-0.07,0.08c-0.04,0.01-0.08-0.01-0.11,0c-0.06,0.01-0.17,0.07-0.23,0.08
			c-0.03,0-0.05-0.02-0.06-0.02c-0.05,0.02,0,0.04-0.03,0.06c-0.05,0.03-0.1,0.01-0.16,0.03c-0.02,0.01-0.06,0.06-0.08,0.07
			c-0.04,0.02-0.06,0-0.1,0.02c0,0,0.01,0.03,0.02,0.03c-0.05,0.02-0.12,0.06-0.18,0.07c-0.22,0.03-0.49-0.01-0.68-0.02
			c-0.08,0-0.15,0.03-0.19,0.03c-0.05,0-0.04-0.04-0.08-0.03c0,0,0,0.05,0,0.05c-0.04,0.01-0.06,0.02-0.1,0.03
			c0,0.03,0,0.43,0.02,0.44c0.01,0-0.02,0.03-0.02,0.05c0.01,0.03,0.09,0.07,0.1,0.1c0.01,0.02-0.04,0.04,0,0.06
			c0.03,0.02,0.03-0.02,0.05-0.02c0,0,0.05,0.04,0.06,0.05l0.05,0.06c0.02,0.01,0.05-0.01,0.07,0c0,0.01,0,0.01,0,0.02
			c0.01,0,0.02,0.04,0.06,0.05c0.02,0,0.1-0.03,0.11-0.03c0,0-0.05,0-0.03,0C82.15,54.03,82.15,54,82.14,54
			c0.04-0.01,0.08-0.04,0.11-0.05c0.11-0.03,0.21-0.01,0.32-0.03l0.05-0.03c0.02-0.01,0.06,0.01,0.08,0
			c0.05-0.02,0.03-0.05,0.05-0.06c0.04-0.03,0.12-0.08,0.16-0.1c0.05-0.02,0.09,0,0.15-0.02v-0.03c0.02,0,0.05-0.02,0.05-0.02
			c0.18-0.04,0.78-0.07,0.93-0.02c0.02,0.01,0.04,0.02,0.06,0.03c0,0-0.02,0.03-0.02,0.03c0.02,0.01,0.05-0.01,0.06,0
			c0.01,0,0.13,0.08,0.15,0.1c0.05,0.05,0.05,0.11,0.08,0.18c0.01,0.02,0.06,0.05,0.06,0.06c0.05,0.09,0.07,0.27,0.02,0.36
			c-0.02,0.03-0.07,0.04-0.1,0.06c-0.01,0.01-0.01,0.06-0.02,0.07c-0.02,0.02-0.06,0-0.08,0.02c0,0,0.01,0.04,0.02,0.05
			c-0.01,0.01-0.08,0.03-0.08,0.03c-0.01,0.01,0,0.04,0,0.05c-0.01,0.01-0.08,0.09-0.1,0.1c-0.1,0.06-0.22,0.06-0.34,0.1l-0.02,0.03
			c-0.07,0.02-0.21,0.03-0.29,0.02c-0.02,0-0.07-0.04-0.08-0.05c-0.09-0.03-0.36-0.11-0.44-0.08v0.03c-0.02,0-0.05,0.02-0.05,0.02
			c-0.05,0.01-0.09-0.01-0.11,0c0,0-0.1,0.18-0.11,0.2c0,0-0.03-0.04-0.03-0.03c-0.02,0.04,0.02,0.06,0.02,0.08
			c0,0.03-0.05,0.05-0.03,0.11c0,0,0.06,0.03,0.07,0.03c0.03,0.04,0.04,0.05,0.08,0.08c0,0-0.02,0.03-0.02,0.03
			c0.1,0.05,0.4-0.02,0.54,0.05c0.06,0.03,0.08,0.12,0.15,0.15c0.12,0.04,0.31,0,0.46,0.02c0.07,0.01,0.15,0.05,0.21,0.07v0.03
			c0.04,0.01,0-0.03,0.03-0.02c0,0-0.02,0.03-0.02,0.03c0.09,0.03,0.15,0.01,0.21,0.06c0.02,0.02,0.04,0.09,0.05,0.1
			c0.01,0.01,0.04,0,0.05,0c0.02,0.01,0.1,0.09,0.11,0.11c0.07,0.16-0.04,0.41-0.13,0.47c-0.03,0.02-0.08,0.01-0.11,0.03v0.03
			c0,0-0.09,0.06-0.1,0.06c-0.02,0.01-0.06,0-0.08,0c-0.02,0-0.09,0.04-0.11,0.05c-0.02,0-0.06-0.01-0.08,0c0,0-0.01,0.04-0.02,0.05
			c-0.04,0.03-0.12,0.08-0.16,0.1c-0.1,0.03-0.1-0.02-0.2,0.02c0,0-0.03,0.05-0.03,0.05c-0.02,0-0.05-0.01-0.06,0
			c-0.03,0.02-0.01,0.05-0.03,0.08c-0.02,0.03-0.07,0.09-0.1,0.11c-0.06,0.05-0.18,0.07-0.13,0.23c0,0.02,0.05,0.02,0.05,0.05
			c0,0.01,0,0.01,0,0.02c0.04,0.03,0.11,0.01,0.18,0.02c0.24,0.02,0.49,0.05,0.58,0.21c0.05,0.08,0.03,0.18,0,0.26
			c-0.04,0.11-0.16,0.17-0.16,0.31c-0.01,0.16,0.1,0.37,0.13,0.5c0.04,0.21,0.04,0.41,0.13,0.55c0.05-0.02-0.03,0.03-0.03,0.03
			c0.01,0,0.04,0,0.05,0c0.01,0.02,0,0.04,0.02,0.05c0.03,0.01,0.01-0.04,0.05-0.02c0.03,0.01,0.05,0.05,0.08,0.06
			c0.07,0.03,0.13,0.02,0.18,0.06c0.04,0.04,0.01,0.08,0.02,0.08c0.01,0.01,0.04,0,0.05,0c0.03,0.01,0.14,0.13,0.15,0.16
			c0.03,0.12-0.02,0.24-0.08,0.28c-0.02,0.01-0.04,0-0.05,0.02c-0.05,0.1,0.03,0.24-0.02,0.36c0,0-0.05,0.03-0.05,0.03
			c-0.05,0.03-0.14,0.08-0.2,0.1c-0.01,0-0.04-0.01-0.05,0c-0.01,0-0.02,0.06-0.03,0.06c-0.01,0.01-0.04-0.01-0.05,0v0.03
			c-0.01,0.02-0.1,0.06-0.1,0.07c-0.03,0.05-0.02,0.14-0.05,0.2c-0.02,0.05-0.09,0.08-0.11,0.13c-0.02,0.04-0.02,0.12-0.05,0.15
			c-0.01,0.01-0.04,0-0.05,0.02c0,0,0,0.05,0,0.05c0,0,0.01-0.01,0.02-0.01c0-0.01,0.01-0.03,0-0.02c0.01,0.01,0.01,0.01,0,0.02
			c0,0.01,0.01,0.01,0,0.01c-0.05,0.01,0.02,0.02,0.02,0.02c-0.03,0.02,0,0.01-0.03,0c0.01,0.02,0,0.06,0,0.08
			c0,0,0.03,0.01,0.03,0.02c0-0.01-0.01-0.05,0.02-0.03c0.03,0.02,0.17,0.18,0.18,0.21c0.03,0.12-0.01,0.18,0,0.29
			c0,0.01,0.03,0.1,0.03,0.11c0,0.03-0.02,0.03-0.02,0.05c0.01,0.03,0.05,0.03,0.06,0.05c0.06,0.06,0.14,0.25,0.08,0.37
			c-0.02,0.04-0.27,0.19-0.32,0.2c-0.03,0-0.06-0.04-0.08-0.03c-0.01,0,0.02,0.05,0.02,0.05c-0.08,0.07-0.11,0.09-0.08,0.26
			l0.03,0.03c0.02,0.03,0.01,0.03-0.02,0.05c0.01,0.01,0.04,0,0.05,0c0.07,0.02,0.12,0.11,0.16,0.16c0.01,0.01,0.04,0.02,0.05,0.03
			c0.03,0.06,0.02,0.11,0.03,0.18c0.02,0.07,0.06,0.15,0.1,0.21c0.01,0.02,0.06,0.07,0.06,0.1c0.02,0.06,0.01,0.26,0.05,0.28
			c0.01,0.01-0.02,0.02-0.02,0.03c0,0.01,0.04,0.04,0.05,0.05c0.03,0.07,0.07,0.25,0.03,0.34c-0.01,0.02-0.05,0.04-0.07,0.05
			c-0.11,0.14-0.25,0.22-0.31,0.33c-0.04,0-0.11-0.01-0.15,0c0,0,0,0.05,0,0.05c-0.01,0.01-0.04,0-0.05,0
			c-0.01,0.04-0.05,0.15-0.11,0.18c-0.01,0-0.04-0.01-0.05,0c0,0,0,0.04,0,0.05c-0.05,0.02-0.12,0.05-0.18,0.06
			c-0.01,0.03-0.03,0.04-0.03,0.05c-0.04,0.23,0.32,0.17,0.24,0.5c-0.01,0.02-0.07,0.14-0.1,0.15c-0.01,0-0.04-0.01-0.05,0
			l-0.02,0.07c-0.05,0.01-0.12,0.03-0.18,0.04l0.98,1.71l3.68,2.38l0.54-0.65l1.41,0.97l6.26-0.97v-0.76l2.27-2.27V64.6l0.54-0.43
			l0.97-6.75L98.9,56.47z M76.41,64.96c0.01-0.02,0.08-0.08,0.11-0.08c0.12-0.01,0.14,0.11,0.21,0.15c0.05,0.02,0.09,0,0.15,0.02
			c0.02,0,0.06,0.04,0.08,0.05c-0.01,0.13,0.04,0.41-0.11,0.44c-0.22,0.04-0.18-0.18-0.26-0.28C76.52,65.17,76.25,65.22,76.41,64.96
			z M75.95,64.69c-0.01-0.01-0.05,0-0.06,0c0-0.03-0.03-0.09-0.02-0.15c0-0.01,0.03-0.02,0.03-0.03c0.01,0.01,0.06,0.02,0.06,0.02
			c0,0.03,0.01,0.08,0.02,0.13C75.96,64.66,75.97,64.67,75.95,64.69z M74.64,67.42c0.02-0.01,0.08-0.06,0.11-0.07
			c0.22-0.02,0.65,0.54,0.29,0.59c-0.13,0.02-0.19-0.07-0.26-0.11c-0.03-0.02-0.06-0.01-0.1-0.03c-0.04-0.02-0.05-0.06-0.08-0.1
			C74.5,67.57,74.48,67.51,74.64,67.42z M71.14,63.73c-0.02,0-0.08-0.02-0.08-0.02c0-0.02,0.02-0.08,0.02-0.08
			c0.02,0.01,0.15,0.04,0.08,0.06C71.16,63.7,71.15,63.72,71.14,63.73z M71.53,65.66c0.09-0.03,0.22-0.06,0.32-0.07
			c0.05,0,0.12,0,0.18,0c-0.03,0.07-0.04,0.14-0.08,0.2c-0.06,0.09-0.41,0.32-0.54,0.13C71.34,65.8,71.43,65.7,71.53,65.66z
			 M70.33,66.02c0.18,0.05,0.16,0.04,0.16,0.21c-0.16-0.05-0.14-0.04-0.21-0.16C70.3,66.05,70.32,66.05,70.33,66.02z M68.23,66.83
			c0.22,0,0.26,0.05,0.33,0.19c0.01,0.02,0,0.05,0.02,0.07c0.03,0.04,0.09,0.03,0.13,0.06c0.03,0.03,0.03,0.11,0.02,0.08
			c-0.01,0.01-0.04,0.06-0.07,0.07c-0.08,0.01-0.43-0.31-0.44-0.36C68.21,66.92,68.23,66.83,68.23,66.83z M67.93,67.56
			c-0.26,0.04-0.32-0.38-0.18-0.5l0.02-0.03C68.07,66.93,68.13,67.53,67.93,67.56z M67.33,66.62c0.03-0.02,0.08-0.06,0.11-0.07
			c0.24-0.04,0.35,0.06,0.44,0.18c-0.08,0.06-0.16,0.14-0.28,0.16C67.36,66.94,67.1,66.76,67.33,66.62z M59.2,66.51
			c0.26-0.07,0.29,0.28,0.11,0.31C59.1,66.85,59.05,66.55,59.2,66.51z M74.64,44.77c0,0.01-0.19,0.13-0.19,0.13
			c-0.04,0.01-0.08-0.01-0.11,0c-0.02,0-0.05,0.06-0.06,0.06c-0.12,0.07-0.4,0.15-0.58,0.08c-0.09-0.03-0.05-0.09-0.08-0.11
			c-0.01-0.01-0.03,0.01-0.03,0.02c-0.04-0.03-0.07-0.1-0.13-0.11c-0.06-0.01-0.12,0.01-0.18,0c-0.13-0.01-0.32-0.07-0.41-0.13
			c-0.03-0.02-0.04-0.06-0.06-0.1c-0.07-0.1-0.13-0.14,0.03-0.2l0.05-0.03c0.29-0.05,0.45,0.08,0.65,0.11
			c0.16,0.03,0.38,0.01,0.54,0.03c0.1,0.02,0.17,0.02,0.24,0.07c0.01,0.01,0.03,0.04,0.05,0.05c0.09,0.03,0.24,0.02,0.33,0.03
			C74.66,44.7,74.66,44.74,74.64,44.77z M76.18,45.03c-0.27,0.06-0.32-0.2-0.1-0.21C76.23,44.81,76.38,44.98,76.18,45.03z
			 M80.31,50.83c-0.01,0.01-0.03,0.01-0.03,0.03c-0.07,0-0.13-0.01-0.18-0.02c-0.01-0.02-0.02-0.06-0.03-0.08
			c0.01-0.02,0.04-0.04,0.05-0.06c0.08,0.01,0.17,0,0.2,0.06C80.31,50.78,80.3,50.81,80.31,50.83z M82.03,49.42
			c-0.02,0.05-0.08,0.13-0.13,0.15c-0.13,0.05-0.31,0.01-0.46,0.03l-0.15,0.05c-0.02,0.02-0.01,0.06-0.03,0.08
			c-0.03,0.02-0.07,0.02-0.11,0.03c-0.06,0.02-0.12,0.03-0.19,0.05l-0.03,0.03c-0.17,0.02-0.41-0.06-0.49-0.15
			c-0.13-0.14-0.18-0.54,0.08-0.57c0.16-0.02,0.42,0.01,0.57,0.03c0.2,0.02,0.35-0.05,0.52-0.02c0.06,0.01,0.09,0.01,0.15,0.03
			l0.02,0.03C81.94,49.24,82.13,49.19,82.03,49.42z M82.26,36.85L80.64,36l-1.4,0.86l-0.97,1.93l-3.56-0.54H73.2l-0.86,1.93
			l-3.24,0.86l-0.54,0.43v-0.43l-0.32-0.54H67.8l-0.97,1.93l-6.9-0.54l-0.54-1.39l2.91-0.32l3.24-2.89l-1.94-3.64l0.43-0.32
			l-0.86-1.93l0.86-1.73l1.83,0.43l0.97-0.97h4.64l0.86,0.97l5.39,0.33v0.97l1.51,0.97h1.73l1.29,1.93V36.85z"/>
		<path d="M79.85,63.78l0.08,0.03c0.04,0,0.07-0.03,0.1-0.05c0.03-0.03,0.02-0.03,0.03-0.08c-0.1-0.07-0.19-0.1-0.31-0.16
			c-0.01-0.01-0.05-0.05-0.06-0.05c-0.24-0.04-0.22,0.12-0.19,0.26C79.63,63.72,79.71,63.75,79.85,63.78z"/>
		<path d="M76.88,56.47c-0.15,0.01-0.11,0.01-0.16,0.11c-0.01,0.01-0.04,0.03-0.05,0.05c-0.04,0.1,0,0.22,0,0.34
			c0.07,0.02,0.12,0.04,0.21,0.03c0.03,0,0.09-0.02,0.15-0.03c0-0.01,0-0.06,0-0.06c0.01,0,0.04,0.04,0.05,0.02
			c0.02-0.04-0.02-0.05-0.02-0.08c0-0.01,0.05-0.06,0.05-0.08C77.15,56.55,77.08,56.46,76.88,56.47z"/>
		<path d="M76.51,55.89v0.03c0.16-0.04,0.02,0.02,0.13-0.06c0.01,0.01,0.02-0.01,0.03-0.02c-0.02-0.01-0.01-0.03-0.02-0.06
			c-0.03,0-0.01,0.02-0.05,0.02c-0.01,0-0.03-0.04-0.05-0.03c-0.01,0-0.01,0.03-0.03,0.03l-0.07-0.03c0,0-0.03,0.01-0.03,0.02
			c0.02,0.02-0.02,0.06-0.02,0.06l0.03,0.03c0.04,0.01,0.05-0.02,0.07-0.02c0.02,0,0.04,0.03,0.05,0.03
			C76.62,55.91,76.51,55.89,76.51,55.89z"/>
		<path d="M80.7,64.8c-0.05,0-0.03-0.01-0.07,0c0.03,0.01,0.06,0.04,0.02,0.11c-0.02,0.03-0.05,0.03-0.08,0.05
			c-0.04,0.03-0.07,0.1-0.11,0.13c-0.02,0.01-0.04,0-0.06,0.02c-0.03,0.02-0.13,0.17-0.15,0.19c-0.02,0.04,0,0.06-0.02,0.1
			c-0.01,0.03-0.02,0.06-0.03,0.11h-0.03c-0.01,0.04,0.02,0.03,0.02,0.07c0,0.07-0.03,0.12-0.02,0.23c0.06-0.01,0.09,0,0.15-0.02
			c0.01,0,0.06-0.05,0.08-0.05c0.03,0,0.03,0.03,0.06,0.02c0.02-0.01,0-0.04,0.02-0.07c0.01,0,0.01,0,0.02,0
			c0.03-0.01,0.05-0.07,0.08-0.08c0.03-0.02,0.07-0.01,0.1-0.03v-0.03c0.03-0.02,0.08-0.08,0.11-0.08c0.07-0.02,0.21,0.06,0.28,0.08
			v0.03c0.03,0.01,0-0.02,0.03-0.02c0.01,0,0.08,0.04,0.11,0.05l0.03,0.03c0.1,0.02,0.14-0.04,0.19-0.05
			c0.06-0.01,0.12,0.04,0.16,0.05c0.11,0.02,0.25-0.04,0.33-0.02c0.01,0-0.02,0.05-0.02,0.05h0.03l0.02-0.07
			c0,0,0.01-0.03,0.02-0.03c0.01,0,0.06,0.01,0.07,0c0.02-0.02-0.02-0.03-0.02-0.03c-0.02,0.03,0.02,0-0.02,0.02
			c0.06-0.09,0.17-0.21,0.29-0.23c0.11-0.02,0.23,0.01,0.29,0.05c0.01,0-0.03,0.03-0.03,0.03c0.02,0,0.05,0.01,0.07,0.01l0.29-0.29
			l0.11,0.19c0.08,0,0.05,0.05,0.12-0.09c0,0.02,0-0.04,0-0.05c-0.02-0.07-0.1-0.09-0.15-0.13c-0.04-0.03-0.04-0.07-0.07-0.11
			c-0.13,0.01-0.18-0.02-0.28,0.02c-0.01,0,0.01,0.03,0.02,0.03c-0.05,0.01-0.08,0.03-0.15,0.02c-0.05-0.01,0.03-0.08-0.05-0.07
			c-0.02,0-0.02,0.04-0.03,0.05c0.03-0.01,0.02,0.01,0.03,0.02c-0.04,0.02-0.09,0.04-0.11,0.05c-0.03,0-0.03-0.02-0.05-0.02
			c0,0-0.01,0.04-0.02,0.05c-0.02,0.01-0.14,0.08-0.15,0.08c-0.17,0.06-0.59-0.01-0.65-0.1c-0.08-0.12,0.01-0.22,0.08-0.28
			c0,0,0.02,0.05,0.03,0.05c0.02-0.12,0.02-0.26,0-0.39c0,0-0.01,0-0.02,0c-0.04,0.02,0.03,0.05-0.02,0.07
			c-0.12-0.21-0.12-0.11-0.34-0.18c-0.01,0,0.05-0.03,0.05-0.03c-0.04,0-0.1-0.01-0.11-0.02c-0.07,0.1-0.07,0.07-0.18,0.08
			c-0.01,0.01-0.02,0.07-0.03,0.08c-0.02,0.01-0.07,0-0.08,0.02c0,0.01,0.03,0.04,0.03,0.05c-0.03,0.04-0.1,0.07-0.13,0.11
			C80.74,64.68,80.73,64.75,80.7,64.8z"/>
		<path d="M79.02,54.47c-0.03,0.04-0.04,0.09-0.05,0.15c-0.09,0.38,0.38,0.37,0.46,0.13c0.02-0.06-0.01-0.13,0.02-0.19
			c0.04-0.1,0.23-0.09,0.31-0.03c0.07,0.05,0.04,0.21,0.03,0.16c-0.01,0.02,0,0.04-0.02,0.06c-0.01,0.02-0.04,0.02-0.06,0.03
			c-0.11,0.07-0.12,0.09-0.16,0.24c0.02,0.01,0.03,0.04,0.05,0.05c0.04,0.02,0.08,0.01,0.13,0.02c0.09,0.02,0.18,0.05,0.24,0.1
			c0.1,0.07,0.16,0.23,0.28,0.28c0.11,0.04,0.2-0.01,0.28-0.03c0.09-0.03,0.19-0.02,0.26-0.06c0.16-0.1,0.09-0.54,0-0.67
			c-0.08-0.11-0.32-0.1-0.42-0.18c-0.05-0.04-0.09-0.12-0.15-0.16c-0.09-0.06-0.21-0.08-0.29-0.15c-0.03-0.02-0.07-0.09-0.1-0.1
			c-0.07-0.02-0.11,0.03-0.19,0.02c-0.1-0.02-0.2-0.11-0.28-0.15c-0.03-0.02-0.08-0.01-0.11-0.03c-0.04-0.03-0.11-0.12-0.13-0.16
			c0,0,0.03-0.05,0.03-0.05c-0.01-0.01-0.11-0.03-0.13-0.03c-0.01,0.02-0.07,0.07-0.08,0.1c-0.06,0.17,0.09,0.21,0.15,0.31
			c0.02,0.03,0.01,0.06,0.03,0.1l0.03,0.02c0.02,0.03,0.04,0.09,0.05,0.11c-0.01,0.01-0.02,0.06-0.03,0.07
			C79.11,54.44,79.06,54.43,79.02,54.47z"/>
		<path d="M80.36,57.09c0,0,0-0.06,0-0.06c0.05,0.15,0.09,0.14,0.21,0.08c-0.07-0.11-0.07-0.12-0.21-0.11c0,0-0.02-0.03-0.02-0.03
			s-0.03,0.01-0.03,0.02c0,0,0.01,0.07,0.02,0.05c0,0-0.01,0.04-0.02,0.05C80.32,57.08,80.35,57.08,80.36,57.09z"/>
		<path d="M66.84,69.3c-0.01,0.01,0.01,0.03,0,0.05c0,0.01-0.18,0.11-0.19,0.11c-0.01,0-0.04-0.01-0.05,0c-0.01,0.01,0,0.05,0,0.06
			c-0.01,0.02-0.1,0.08-0.11,0.08c-0.04,0.01-0.11-0.02-0.15,0c0,0.01,0,0.01,0,0.02c0,0.02-0.09,0.11-0.11,0.13
			c-0.06,0.04-0.12,0.05-0.18,0.1c-0.04,0.03-0.04,0.08-0.1,0.1c-0.02,0.01-0.06-0.01-0.08,0c-0.02,0.01,0,0.04-0.02,0.06
			c0,0-0.04,0-0.05,0c0,0.01,0,0.02-0.01,0.03l0.07,0.07l1.69-0.69c-0.03-0.01-0.06-0.01-0.08-0.02c-0.01-0.01-0.03-0.04-0.05-0.05
			c-0.05-0.02-0.08,0-0.13-0.02l-0.03-0.03c-0.03,0-0.23-0.01-0.28,0c-0.02,0-0.07,0.04-0.1,0.03c-0.01,0,0.01-0.03,0.02-0.03
			C66.89,69.3,66.85,69.31,66.84,69.3z"/>
		<path d="M80.19,64.8c0-0.02,0.03-0.04,0.03-0.05c0-0.01,0.01-0.3,0-0.33c-0.01-0.03-0.06-0.04-0.07-0.05
			c-0.08,0.15-0.09,0.14-0.08,0.33c-0.04,0-0.01,0.02,0,0.02c0,0,0,0.06,0,0.06C80.11,64.79,80.15,64.79,80.19,64.8z"/>
		<path d="M76.02,62.49c-0.04-0.02-0.02,0-0.05,0c-0.03-0.05-0.02-0.08-0.05-0.15c-0.07-0.01-0.18-0.03-0.19-0.03
			c-0.02,0-0.09,0.01-0.13,0.02c-0.03,0.09-0.08,0.2-0.1,0.29c0,0.03,0.02,0.1,0.02,0.1c0,0.02,0,0.1-0.02,0.1
			c0.04,0.02,0.08,0.05,0.11,0.07c0,0.01,0,0.01,0,0.02c0.04,0.01,0.08-0.02,0.15,0c0.04,0.01,0.09,0.08,0.16,0.06
			c0.12-0.02,0.08-0.32,0.07-0.44C76.02,62.51,76.01,62.53,76.02,62.49z"/>
		<path d="M77.35,54.6c0.08-0.03,0.12,0.01,0.21,0l0.02-0.03c0.05-0.02,0.09-0.02,0.13-0.03c0-0.02,0.02-0.1,0.03-0.11
			c0.01-0.01-0.01-0.09-0.02-0.11c-0.04,0.01-0.03,0-0.05,0c-0.1-0.02-0.17,0-0.26,0.03c-0.07,0.02-0.16,0.05-0.26,0.03
			c-0.07-0.02-0.11-0.1-0.23-0.08c-0.14,0.03-0.1,0.28-0.05,0.37c0.01,0.01,0.06,0.05,0.06,0.06v0.03c0.03,0.02,0.12,0.02,0.16,0.02
			C77.2,54.76,77.26,54.64,77.35,54.6z"/>
		<path d="M64.87,66.82c-0.03,0-0.12,0.02-0.18,0.02c0,0.01,0,0.05,0,0.05c0,0.01-0.03,0.01-0.05,0.02c0.01,0.1-0.02,0.18,0.06,0.2
			c0.01,0,0.01,0,0.02,0c0.07-0.03,0.13,0.01,0.2-0.03c0.02-0.01-0.03-0.02-0.02-0.03C64.98,66.98,64.97,66.83,64.87,66.82z"/>
		<path d="M76.23,53.34c0.06,0.04,0.13,0.14,0.18,0.2c0.02,0.02,0.05,0.03,0.08,0.05c0.05,0.04,0.08,0.12,0.13,0.16
			c0.03,0.03,0.07,0.03,0.1,0.06c0.05,0.06,0.07,0.14,0.11,0.2c0.04,0.04,0.07,0.1,0.16,0.08c0.04-0.01,0.05-0.06,0.08-0.08
			c0.08-0.05,0.22-0.08,0.28-0.1c0.03-0.01,0.01,0.03,0.05,0.02c0.03-0.01,0-0.13,0-0.13h-0.03c0.01,0.03-0.01,0.01-0.02,0.02
			c0-0.02-0.02-0.1-0.03-0.11h-0.03c0.06,0.03-0.02,0.02-0.02,0.02c-0.01,0-0.02-0.04-0.03-0.05c-0.04-0.02-0.08-0.03-0.11-0.05
			c0.03-0.01-0.03-0.03,0.02-0.02l0.02,0.02v-0.03c-0.01-0.01-0.06-0.01-0.07-0.02c0-0.01-0.01-0.07-0.02-0.08
			c-0.08,0.01-0.21,0.02-0.31-0.03c-0.01-0.01-0.03-0.06-0.05-0.06h-0.03c-0.04-0.03-0.08-0.14-0.11-0.16
			c-0.03-0.02-0.05,0-0.08-0.02c-0.01-0.01-0.08-0.07-0.08-0.08c0-0.01,0-0.04,0-0.05c0,0-0.08-0.03-0.08-0.03
			c0.02,0-0.02-0.03-0.02-0.03c-0.01-0.05,0.02-0.06,0.02-0.1h-0.03c-0.02-0.06-0.02-0.09-0.03-0.16c-0.04,0-0.11-0.01-0.16-0.03
			h-0.03c-0.03,0-0.12,0.03-0.15,0.03c0,0.01,0.01,0.05,0,0.06c-0.01,0.02-0.07,0.06-0.08,0.08c-0.01,0.03,0.01,0.03,0.02,0.05
			c-0.03,0-0.01,0.01-0.02,0.03c-0.01,0.06,0.02,0.14,0.06,0.18l0.02,0.02c0,0.01-0.01,0.04,0,0.05c0.02,0.02,0.04,0,0.08,0.02
			c0.02,0.01,0.08,0.06,0.1,0.06C76.15,53.32,76.19,53.31,76.23,53.34z"/>
		<path d="M63.57,47.63c0,0,0.04-0.03,0.03-0.03c-0.03-0.01-0.04,0-0.06-0.02c0,0,0-0.04,0-0.05c-0.07-0.03-0.13-0.07-0.24-0.05
			c-0.03,0-0.08,0.05-0.1,0.05c-0.04,0.01-0.03-0.03-0.06-0.02c0,0-0.03,0.05-0.03,0.05c-0.02,0-0.02-0.03-0.03-0.02
			c-0.01,0.01,0,0.05,0,0.06c-0.01,0.04-0.07,0.09-0.08,0.13c-0.02,0.06-0.01,0.15-0.03,0.2c-0.01,0-0.01,0-0.02,0
			c-0.03,0-0.04,0.03-0.05,0.05c0.04,0,0.07,0.02,0.11,0.02c0,0,0.01-0.03,0.02-0.03c0.02,0,0.07,0.01,0.13,0
			c0.01,0,0.08-0.06,0.11-0.07c0.04-0.01,0.08,0.01,0.11,0c0.03-0.01,0.08-0.08,0.11-0.08c0.03,0,0.01,0.03,0.03,0.02
			c0.01-0.01,0.05-0.1,0.05-0.1c0.01-0.01,0.05,0.01,0.06,0c0.01-0.01-0.02-0.08,0-0.1C63.61,47.63,63.59,47.63,63.57,47.63z"/>
		<path d="M70.1,61.78c-0.07-0.14-0.19-0.17-0.34-0.18c0,0-0.03,0.01-0.03,0.02v0.21c0.05,0.01,0.11,0.04,0.16,0.08
			c0.05,0.04,0.02,0.08,0.11,0.1c0.1,0.01,0.11-0.02,0.16-0.05c0-0.01-0.01-0.04,0-0.05c0,0,0.06,0.04,0.03,0.05
			c0,0,0.02-0.05,0.03-0.05c-0.01-0.01,0-0.07-0.02-0.08h-0.08c0,0,0-0.05,0-0.05H70.1z"/>
		<path d="M71.21,61.04c0-0.09,0-0.1,0-0.2c-0.02,0.02-0.04,0.02-0.06,0.03c0.03,0.01,0.04,0.09,0,0.07c0,0-0.02-0.06-0.03-0.07
			c-0.07-0.06-0.14-0.09-0.23-0.13v-0.03c-0.03-0.01-0.01,0.03-0.05,0.02l-0.02-0.03c-0.01,0-0.04,0.02-0.07,0.02
			c-0.01,0-0.1-0.03-0.11-0.03c-0.12-0.01-0.26,0.01-0.36-0.03c0,0,0-0.01,0-0.02c-0.07-0.04-0.07-0.09-0.11-0.11
			c-0.02-0.01-0.05,0-0.07-0.02c-0.02-0.02,0.02-0.02,0.02-0.02c0.05-0.03-0.03-0.05-0.06-0.05c-0.02,0-0.03,0.01-0.05,0.02
			c0.09,0.05,0.03,0.04-0.02,0.1c-0.02,0.02,0.01,0.05-0.02,0.06c-0.01,0.01-0.04-0.01-0.05,0l-0.05,0.06
			c-0.04,0.02-0.08,0.01-0.11,0.02c-0.02,0.07-0.03,0.09-0.03,0.13c-0.01,0.1,0.01,0.18,0.03,0.24c0.06,0.01,0.15,0.04,0.21,0
			c0.02-0.01,0.01-0.11,0.08-0.13c0.15-0.04,0.24,0.08,0.36,0.08c0.04,0,0.05-0.03,0.08-0.03c0.22-0.03,0.49,0.01,0.46,0.23
			c-0.01,0-0.01,0-0.02,0c-0.03,0.06-0.04,0.08-0.06,0.15c0.03,0.01,0.06,0.02,0.11,0.03c0.01-0.02,0-0.04,0.02-0.05
			c0.02-0.01,0.03,0.01,0.05,0c0,0,0-0.05,0-0.05h-0.03c0-0.11,0.01-0.15,0.06-0.23c0.01-0.02,0.06-0.03,0.07-0.05
			c0.01-0.02-0.01-0.03,0-0.05c0,0,0.07,0.03,0.05,0.03C71.15,61.02,71.2,61.04,71.21,61.04z"/>
		<path d="M74.44,49.68c0.03-0.02,0,0.02,0.03,0.02c0.02,0,0.01-0.06,0-0.07c0.02,0.01,0.05,0.02,0.06,0.03v0.03
			c0,0,0.07-0.03,0.02-0.02v-0.03c0.01,0,0.07,0.02,0.11,0c0.03-0.02-0.02-0.07,0-0.08c0,0-0.04,0.04-0.05,0.03
			c-0.01-0.01-0.01-0.03-0.02-0.05c-0.05,0-0.05-0.01-0.13,0c0,0,0-0.05,0-0.05C74.46,49.56,74.45,49.63,74.44,49.68z"/>
		<path d="M74.43,59.21c0.02,0.07,0.01,0.1,0.02,0.15c0.05,0.02,0.15,0.05,0.21,0.03v-0.03c0.04-0.02,0.04-0.02,0.07-0.03
			c0.02-0.02,0.14-0.05,0.15-0.06c0.01-0.02,0-0.06,0-0.08c0-0.01,0.03-0.05,0.03-0.07c0,0,0.03,0.02,0.03,0.02
			c0.05-0.11,0.01-0.21,0-0.31c0,0.01-0.01,0.05-0.02,0.08c-0.08-0.1-0.1-0.13-0.28-0.15c0.04-0.15,0.04-0.33,0.06-0.5
			c-0.08-0.02-0.16-0.02-0.24-0.05c-0.03-0.01-0.06-0.05-0.08-0.07c-0.1-0.06-0.18-0.11-0.28-0.16c0.02,0,0-0.04,0-0.05
			c-0.03,0.01-0.03-0.01-0.07,0c-0.01,0-0.02,0.02-0.03,0.03v-0.03c-0.05,0.08-0.06,0.07-0.08,0.19h-0.03v0.05
			c0.01,0,0.03-0.03,0.03-0.03c0.02,0.06,0.06,0.13,0.06,0.18c0,0.04-0.03,0.08-0.02,0.13c0,0,0.04-0.01,0.05-0.02
			c0.01,0.03,0.03,0.06,0.03,0.08c0,0.02-0.01,0.05,0.02,0.05c0,0-0.02,0.05-0.03,0.05c0.01,0.01,0.05,0,0.07,0.02
			c0.02,0.02,0.01,0.08,0.03,0.1c0.01,0.01,0.04,0,0.05,0c0.01,0,0.11,0.1,0.11,0.11c0,0.01-0.01,0.04,0,0.05
			c0.02,0.01,0.08,0.02,0.1,0.03c-0.01,0.14,0.03,0.25-0.02,0.29C74.38,59.21,74.42,59.21,74.43,59.21z"/>
		<path d="M72.61,46.86c-0.02,0-0.04-0.02-0.07-0.03v0.03c-0.01,0-0.01,0-0.02,0c0,0,0.03,0.05,0.03,0.05
			c0.05,0.01,0.22-0.01,0.26-0.02c0,0,0-0.05,0-0.05c0.02-0.01,0.03,0.01,0.05,0c0.01-0.01-0.01-0.04,0-0.05
			c-0.03,0-0.02,0.05-0.06,0.02c-0.03-0.02,0.03-0.03,0.03-0.03c-0.02,0-0.07-0.03-0.1-0.03c0,0.01-0.03,0.01-0.05,0.02
			c0,0.02,0.02,0.07,0.02,0.07c-0.04,0.02-0.04-0.04-0.06-0.03C72.64,46.8,72.61,46.86,72.61,46.86z"/>
		<path d="M63.36,47.43c-0.05,0,0.03,0.03,0.03,0.03c-0.01,0,0.05-0.03,0.05-0.03C63.41,47.43,63.39,47.43,63.36,47.43z"/>
		<path d="M61.13,55.92c0-0.01,0.01-0.05,0-0.06c-0.16,0.05-0.35-0.03-0.46-0.02c-0.02,0-0.02,0.03-0.03,0.03
			c-0.04,0.01,0.01-0.03-0.03-0.02v0.03c0,0-0.01,0-0.02,0l-0.02-0.02v0.03c-0.04,0.01-0.08,0.03-0.1,0.03
			c-0.07,0.02-0.11-0.02-0.16,0c-0.02,0.01,0,0.04-0.02,0.05c-0.01,0.01-0.06,0.02-0.06,0.03c-0.01,0.01,0.01,0.04,0,0.05
			c-0.02,0.02-0.21,0.17-0.23,0.18c-0.06,0.02-0.13-0.01-0.2,0c-0.04,0-0.11,0.03-0.16,0.03c0,0.09,0,0.15,0.02,0.23
			c0.08,0.01,0.15,0.03,0.24,0.02c0.04,0,0.12-0.04,0.16-0.05c0.09-0.01,0.15,0,0.23,0.02c0-0.01,0-0.01,0-0.02
			c0.01,0,0.01,0,0.02,0c0.12,0.03,0.23,0,0.36,0c0.01,0,0.09,0.03,0.13,0.02c0,0-0.01-0.04-0.02-0.05
			c0.02-0.01,0.03-0.01,0.03-0.02c0.07-0.03,0.1,0,0.15,0c0.01-0.01,0-0.05,0-0.07c0.01,0,0.01,0,0.02,0c0,0,0.01-0.03,0.02-0.03
			c0,0,0.05,0,0.05,0c0.02-0.03-0.03-0.03-0.03-0.03c0.03-0.02,0.11-0.11,0.13-0.11c0.03-0.01,0.05,0.01,0.08,0
			c-0.01-0.06,0-0.02-0.03-0.05c0.02-0.06,0.03-0.11,0.05-0.18C61.2,55.93,61.18,55.94,61.13,55.92z"/>
	</g>
</g>
</svg>
